<?xml version="1.0" encoding="UTF-8"?>
<svg version="1.1" xmlns="http://www.w3.org/2000/svg" width="1000" height="1000">
<path d="M0 0 C1.01305395 -0.00424107 1.01305395 -0.00424107 2.04657364 -0.00856781 C5.63668429 -0.02343132 9.22675626 -0.03273562 12.81689453 -0.03710938 C15.70374532 -0.04144495 18.59028893 -0.05516175 21.47705078 -0.078125 C49.30727154 -0.29447995 76.62870226 1.52861466 104.0703125 6.453125 C104.92564575 6.60307922 105.780979 6.75303345 106.66223145 6.90753174 C157.08383839 15.7700247 207.05800302 32.27093611 252.0078125 56.93945312 C254.38402399 58.23794032 256.7726305 59.51104051 259.1640625 60.78125 C287.95684029 76.1891081 315.24598482 94.97319503 339.96899414 116.32275391 C342.09926092 118.16103164 344.24377123 119.97896379 346.40820312 121.77685547 C355.38556209 129.27679331 363.73665924 137.3098061 371.98120117 145.60327148 C374.14083804 147.77369061 376.31105153 149.93312317 378.48242188 152.09179688 C385.18372993 158.78712486 391.68022965 165.46787981 397.51782227 172.94140625 C399.38901416 175.28933009 401.38008057 177.46267885 403.4453125 179.640625 C410.71374766 187.63209821 416.95678074 196.48909953 423.3203125 205.203125 C424.13967285 206.32460938 424.13967285 206.32460938 424.97558594 207.46875 C449.15498267 240.74008561 468.91095896 277.10453954 484.3203125 315.203125 C484.9388208 316.73187256 484.9388208 316.73187256 485.56982422 318.29150391 C505.8856112 369.11867077 518.37929436 425.28422464 518.5234375 480.1328125 C518.52626488 480.8765424 518.52909225 481.62027229 518.53200531 482.38653946 C518.54689514 486.3385883 518.55618348 490.29060174 518.56054688 494.24267578 C518.56488887 497.43420105 518.57862739 500.62544947 518.6015625 503.81689453 C518.79858001 531.85011291 517.2404623 559.30702831 512.1953125 586.953125 C512.04791626 587.77732941 511.90052002 588.60153381 511.74865723 589.45071411 C497.83401082 666.79745573 465.50405146 741.01150395 417.3203125 803.203125 C416.90604004 803.74211426 416.49176758 804.28110352 416.06494141 804.83642578 C406.37279084 817.43514502 396.07460587 829.49845222 385.3203125 841.203125 C384.79099121 841.78288086 384.26166992 842.36263672 383.71630859 842.95996094 C375.18227942 852.28746771 366.36641322 861.15902397 357.01025391 869.66162109 C355.47097134 871.06569941 353.94747451 872.48703421 352.42578125 873.91015625 C346.52106156 879.39990296 340.35792865 884.42713189 333.984375 889.3515625 C331.51403003 891.26208584 329.07475202 893.20395541 326.65625 895.1796875 C317.85663984 902.3628766 308.78286012 908.92297264 299.3203125 915.203125 C298.55589844 915.71488281 297.79148437 916.22664062 297.00390625 916.75390625 C267.51525337 936.4609572 236.20925408 952.93138434 203.3203125 966.203125 C201.79591553 966.81945801 201.79591553 966.81945801 200.24072266 967.44824219 C167.94081559 980.35968963 133.87910859 989.34999267 99.5703125 995.015625 C97.92687866 995.28971191 97.92687866 995.28971191 96.25024414 995.56933594 C92.28126846 996.18348419 88.3057468 996.7103338 84.3203125 997.203125 C83.32459229 997.32840576 82.32887207 997.45368652 81.30297852 997.58276367 C61.80377461 999.96737426 42.56936983 1000.68203094 22.94335938 1000.59423828 C19.09182909 1000.5771475 15.24092111 1000.58733892 11.38941193 1000.60455322 C-14.38143941 1000.7022008 -39.77272701 999.04872837 -65.1796875 994.453125 C-65.8947345 994.32684723 -66.60978149 994.20056946 -67.34649658 994.07046509 C-92.64722961 989.59239501 -117.29911194 983.33927933 -141.6796875 975.203125 C-142.73961914 974.85024414 -143.79955078 974.49736328 -144.89160156 974.13378906 C-202.55035752 954.6968286 -257.46391575 923.93361387 -303.453125 883.98999023 C-305.53243188 882.1855671 -307.62849808 880.41166817 -309.74316406 878.64770508 C-318.72917599 871.14171582 -327.08859876 863.1039235 -335.34057617 854.80297852 C-337.50021304 852.63255939 -339.67042653 850.47312683 -341.84179688 848.31445312 C-348.55392612 841.60836126 -355.05844454 834.91298641 -360.91381836 827.43432617 C-362.66541958 825.22115272 -364.51126431 823.1472208 -366.4296875 821.078125 C-372.63646176 814.1584935 -378.1242564 806.64650972 -383.6796875 799.203125 C-384.48696289 798.12514648 -384.48696289 798.12514648 -385.31054688 797.02539062 C-405.74512825 769.62164629 -423.49413025 739.7814507 -437.4921875 708.578125 C-437.78894379 707.91870911 -438.08570007 707.25929321 -438.39144897 706.57989502 C-458.99632382 660.645897 -472.67856509 612.2759544 -478.9296875 562.328125 C-479.01286224 561.663573 -479.09603699 560.999021 -479.18173218 560.31433105 C-480.87962593 546.58351958 -481.84403269 532.99145435 -481.8828125 519.1484375 C-481.88563988 518.44883785 -481.88846725 517.7492382 -481.89138031 517.02843857 C-481.90626227 513.30980831 -481.91555515 509.59121559 -481.91992188 505.87255859 C-481.92426006 502.87503577 -481.93798445 499.87780835 -481.9609375 496.88037109 C-482.15606314 470.83883618 -480.76432381 445.17590758 -476.3671875 419.453125 C-476.15408936 418.18186768 -475.94099121 416.91061035 -475.72143555 415.60083008 C-468.36526964 372.79768883 -455.19553869 331.90210298 -437.6796875 292.203125 C-437.32551758 291.39939453 -436.97134766 290.59566406 -436.60644531 289.76757812 C-425.45293748 264.70825406 -411.25744578 240.75278779 -395.6796875 218.203125 C-395.21062988 217.5215332 -394.74157227 216.83994141 -394.25830078 216.13769531 C-382.25505946 198.74823195 -369.18494334 182.32798229 -354.9453125 166.71484375 C-353.72202622 165.35868328 -352.50455792 163.99663222 -351.32324219 162.60375977 C-345.93254631 156.28326042 -340.09089429 150.42822551 -334.22021484 144.55834961 C-332.44206978 142.77802248 -330.67209189 140.98984123 -328.90234375 139.20117188 C-322.87658395 133.14636378 -316.79760849 127.41729147 -310.07861328 122.12841797 C-307.55495613 120.10302001 -305.1788638 117.96343827 -302.8046875 115.765625 C-233.26677408 52.65833367 -137.43654329 15.28800926 0 0 Z M-296.6796875 186.203125 C-297.83791016 187.34394531 -297.83791016 187.34394531 -299.01953125 188.5078125 C-315.33478966 205.52030418 -320.39213155 226.22190433 -319.984375 249.2109375 C-319.33144461 266.39757637 -312.33865911 283.47792537 -300.6796875 296.203125 C-299.44412109 297.55857422 -299.44412109 297.55857422 -298.18359375 298.94140625 C-282.5562284 315.32243178 -262.20531374 323.91119048 -239.6796875 324.453125 C-216.56918609 324.20117702 -196.02673315 315.31611307 -179.74975586 298.88061523 C-163.78858504 281.98146293 -157.97999542 260.82985283 -158.36328125 238.0234375 C-158.66247645 230.32448149 -160.20440407 223.49869721 -162.6796875 216.203125 C-163.0303125 215.15125 -163.3809375 214.099375 -163.7421875 213.015625 C-171.46413841 192.42375591 -187.88565911 177.7298448 -207.3046875 168.328125 C-237.86851195 155.25510274 -273.38529518 162.94710894 -296.6796875 186.203125 Z M148.3203125 380.203125 C147.17393311 380.46802734 147.17393311 380.46802734 146.00439453 380.73828125 C122.14413958 386.42807488 100.27080397 398.629188 82.3203125 415.203125 C81.77777832 415.69651367 81.23524414 416.18990234 80.67626953 416.69824219 C71.41277046 425.20359628 62.54640442 435.08366348 57.20703125 446.60546875 C56.3203125 448.203125 56.3203125 448.203125 53.3203125 449.203125 C53.3203125 428.743125 53.3203125 408.283125 53.3203125 387.203125 C9.1003125 387.203125 -35.1196875 387.203125 -80.6796875 387.203125 C-80.6796875 536.033125 -80.6796875 684.863125 -80.6796875 838.203125 C-34.4796875 838.203125 11.7203125 838.203125 59.3203125 838.203125 C59.35769531 820.49527344 59.39507813 802.78742188 59.43359375 784.54296875 C59.4638827 773.30012249 59.49491629 762.05728638 59.52929688 750.81445312 C59.54734318 744.90372787 59.56520656 738.99300212 59.58276367 733.08227539 C59.58497136 732.3416068 59.58717905 731.60093821 59.58945364 730.83782512 C59.62468717 718.92792516 59.64962221 707.01802525 59.67065952 695.10809272 C59.69253137 682.85747598 59.72568801 670.60692602 59.76901406 658.35636622 C59.79533633 650.81571067 59.81317403 643.27513809 59.81965854 635.73443896 C59.82560679 629.92241275 59.84736282 624.11052265 59.87458801 618.2985611 C59.88328446 615.93616353 59.88710856 613.5737414 59.88532066 611.21132851 C59.8700118 581.6135299 62.30853742 549.92438614 80.3203125 525.203125 C80.82949219 524.49800781 81.33867188 523.79289063 81.86328125 523.06640625 C93.74393228 508.13492138 112.81611603 501.55702893 131.16894531 499.39941406 C152.06728679 497.4926657 172.82140671 499.98947736 189.85546875 513.11328125 C209.13370991 529.45854119 213.97333552 555.28587886 216.10642231 579.22816813 C216.44243524 583.90170626 216.4737786 588.56072505 216.47853088 593.24467468 C216.48346886 594.29946276 216.48840684 595.35425084 216.49349445 596.44100219 C216.50874591 599.94463477 216.51719627 603.44824921 216.52563477 606.9519043 C216.53522302 609.47566383 216.54523365 611.99942178 216.55563354 614.5231781 C216.57701378 619.94088394 216.59547753 625.358587 216.61123848 630.77631187 C216.63403078 638.60925908 216.66216015 646.44218011 216.69155776 654.27510498 C216.73911956 666.98604471 216.78241434 679.6969952 216.82299805 692.40795898 C216.86241127 704.74943885 216.90386226 717.09090913 216.94799805 729.43237305 C216.95074755 730.20190585 216.95349706 730.97143865 216.95632988 731.76429063 C216.97785128 737.7832799 216.99949019 743.80226875 217.02116621 749.82125747 C217.12723181 779.2818606 217.22305536 808.74248893 217.3203125 838.203125 C263.5203125 838.203125 309.7203125 838.203125 357.3203125 838.203125 C357.34949926 794.24414158 357.34949926 794.24414158 357.36914062 750.28515625 C357.37109781 744.32503252 357.37311809 738.36490882 357.37524414 732.40478516 C357.37550789 731.658021 357.37577164 730.91125684 357.37604338 730.14186347 C357.38036505 718.16502546 357.38823319 706.18819237 357.3974653 694.21135725 C357.40689454 681.87371798 357.41238748 669.53608125 357.41440099 657.19843853 C357.41563706 650.28806087 357.41858043 643.37769346 357.42604256 636.46731949 C357.51298825 601.50897253 357.51298825 601.50897253 356.89624023 566.55810547 C356.84188482 564.66302592 356.84188482 564.66302592 356.78643131 562.72966194 C354.87199148 507.01061153 344.88092502 449.85964397 303.0078125 410.015625 C285.99314987 394.99280581 265.15559816 386.48434204 243.3203125 381.203125 C242.62953613 381.03586914 241.93875977 380.86861328 241.22705078 380.69628906 C224.94939638 376.8744717 208.3642597 375.78801613 191.6953125 375.828125 C190.87358551 375.82833649 190.05185852 375.82854797 189.20523071 375.82876587 C175.26693428 375.86434813 161.91583251 376.94386956 148.3203125 380.203125 Z M-308.6796875 387.203125 C-308.6796875 536.033125 -308.6796875 684.863125 -308.6796875 838.203125 C-262.8096875 838.203125 -216.9396875 838.203125 -169.6796875 838.203125 C-169.6796875 689.373125 -169.6796875 540.543125 -169.6796875 387.203125 C-215.5496875 387.203125 -261.4196875 387.203125 -308.6796875 387.203125 Z " fill="#FFFFFF" transform="translate(481.6796875,-0.203125)"/>
</svg>
