<?xml version="1.0" encoding="UTF-8"?>
<svg version="1.1" xmlns="http://www.w3.org/2000/svg" width="1000" height="1000">
<path d="M0 0 C1.30179199 0.18723633 2.60358398 0.37447266 3.94482422 0.56738281 C79.08517986 11.65319398 151.69968047 40.64627929 214 84 C214.62116699 84.42974121 215.24233398 84.85948242 215.88232422 85.30224609 C224.85638956 91.53124695 233.4837392 98.16157743 242 105 C243.38445312 106.10794922 243.38445312 106.10794922 244.796875 107.23828125 C255.88565839 116.21100982 266.67012097 125.43413271 276.640625 135.640625 C278.61144999 137.61144999 280.60079327 139.41868384 282.75 141.1875 C285.93946248 143.83019748 288.55062102 146.81589807 291.22265625 149.97265625 C293.57514544 152.65604502 296.12255663 155.10483373 298.71484375 157.5546875 C300 159 300 159 300 161 C300.66 161 301.32 161 302 161 C303.37491299 162.50787161 304.67364462 164.08539761 305.9375 165.6875 C309.25754754 169.84679644 312.63880236 173.91456341 316.125 177.9375 C341.88144829 208.13645424 362.34005319 242.58579425 380 278 C380.59651367 279.18916016 380.59651367 279.18916016 381.20507812 280.40234375 C383.60143142 285.21270303 385.84860882 290.07541063 388 295 C388.40250977 295.92022949 388.80501953 296.84045898 389.21972656 297.78857422 C409.03348284 343.61246874 421.42742382 392.43265833 427 442 C427.08661896 442.64966232 427.17323792 443.29932465 427.26248169 443.96867371 C428.33754422 452.89222257 428.18404885 461.86618135 428.203125 470.83984375 C428.20595238 471.74577333 428.20877975 472.65170292 428.21169281 473.58508492 C428.22663424 478.39486092 428.23589126 483.20460741 428.24023438 488.0144043 C428.24459038 491.93279479 428.25837671 495.85096154 428.28125 499.76928711 C428.40671722 521.71506907 428.3138455 543.25021362 425 565 C424.88168823 565.81594635 424.76337646 566.6318927 424.64147949 567.4725647 C423.93661012 572.31335127 423.12560656 577.12467908 422.25 581.9375 C422.12471924 582.63659485 421.99943848 583.3356897 421.87036133 584.05596924 C418.02883664 605.39797254 412.57584196 626.34102919 406 647 C405.71576172 647.91104492 405.43152344 648.82208984 405.13867188 649.76074219 C400.39881464 664.89654978 394.70649429 679.46782672 388.32421875 693.984375 C387.10783984 696.75441783 385.91099118 699.53200819 384.71875 702.3125 C379.23110528 714.96546201 372.75631105 726.98527367 366 739 C365.29228741 740.27696638 364.58517568 741.55426611 363.87890625 742.83203125 C354.9055665 758.85718478 344.81711629 774.16640172 334 789 C333.49968262 789.68723145 332.99936523 790.37446289 332.48388672 791.08251953 C326.10055156 799.81318205 319.44666755 808.22687444 312.37207031 816.40576172 C310.47146069 818.6141213 308.59766162 820.84460647 306.72265625 823.07470703 C304.49176721 825.72504647 302.24668462 828.36303029 300 831 C298.81277344 832.39412109 298.81277344 832.39412109 297.6015625 833.81640625 C296.53035156 835.05197266 296.53035156 835.05197266 295.4375 836.3125 C294.81746094 837.03050781 294.19742188 837.74851562 293.55859375 838.48828125 C292 840 292 840 290 840 C289.79632812 840.52980469 289.59265625 841.05960938 289.3828125 841.60546875 C287.3992851 845.040221 284.69864305 847.552859 281.875 850.3125 C280.99050171 851.18624268 280.99050171 851.18624268 280.08813477 852.07763672 C276.52073766 855.57896186 272.89000621 858.96783086 269.078125 862.203125 C266.9191349 864.06992095 264.82447007 865.99890901 262.7331543 867.94091797 C256.685115 873.55238264 250.45845345 878.86120348 244 884 C243.48775879 884.41185547 242.97551758 884.82371094 242.44775391 885.24804688 C219.42935798 903.75180425 194.90018474 919.81678379 169 934 C168.05350586 934.51916992 167.10701172 935.03833984 166.13183594 935.57324219 C91.55314644 976.15608844 91.55314644 976.15608844 65.9375 969.1640625 C60.14645802 966.53337575 55.82273053 962.75035982 53 957 C50.49908202 949.42146832 50.7455249 941.95055507 50.8046875 934.04125977 C50.80853109 932.5307383 50.81145622 931.02021426 50.8135376 929.50968933 C50.81983859 926.26747932 50.83234491 923.02537468 50.84967041 919.78320503 C50.87685939 914.64054806 50.88853549 909.49792535 50.89794922 904.35520935 C50.92198641 892.49911267 50.96595219 880.64310591 51.01040649 868.78707123 C51.05091558 857.93915114 51.08704404 847.09126299 51.10683632 836.24328274 C51.11670943 831.14823887 51.13629143 826.05335918 51.16369629 820.95838082 C51.17879886 817.76396003 51.18528313 814.5695605 51.1896286 811.37510872 C51.19331869 809.91318941 51.20040859 808.45127326 51.21149445 806.98939133 C51.43973649 775.8640486 43.64968583 747.63300822 24 723 C23.26136719 722.278125 22.52273438 721.55625 21.76171875 720.8125 C20 719 20 719 20 717 C19.34 717 18.68 717 18 717 C18 716.01 18 715.02 18 714 C18.91362305 713.87995605 19.82724609 713.75991211 20.76855469 713.63623047 C76.67123459 706.20258664 135.01410994 693.59480261 177.69921875 654.109375 C179.7713264 652.20964982 181.89841131 650.41773619 184.0625 648.625 C189.02435454 644.28959202 192.95066395 639.17265685 197 634 C197.81726563 632.99839844 198.63453125 631.99679687 199.4765625 630.96484375 C205.56996201 623.41573972 210.46104028 615.4878025 214.98583984 606.9140625 C215.90371447 605.18172329 216.85061221 603.4648387 217.80078125 601.75 C238.13434487 563.60703928 244.41237315 517.63562776 244.31567383 474.91601562 C244.31250101 472.00092509 244.33615696 469.08684249 244.36132812 466.171875 C244.4186018 449.41848834 242.92278519 432.82498002 238.1875 416.6875 C237.92888184 415.77782471 237.67026367 414.86814941 237.40380859 413.9309082 C235.03448927 405.77605839 232.30410003 397.82259483 229 390 C228.57944336 388.99839844 228.57944336 388.99839844 228.15039062 387.9765625 C220.45092589 369.96015496 209.94373023 352.21638768 195.5625 338.7109375 C193.79236646 335.63975581 193.87467377 335.1332067 194.59375 331.82421875 C195.04712334 330.21174311 195.51662123 328.60373627 196 327 C196.41491339 325.34198772 196.82103087 323.68175185 197.21875 322.01953125 C197.85488741 319.43010073 198.49271612 316.84139271 199.14453125 314.25585938 C202.22578642 301.61893252 203.41258485 289.1079067 203.375 276.125 C203.37445618 275.41066803 203.37391235 274.69633606 203.37335205 273.96035767 C203.29474375 251.319596 199.99834262 225.24694891 189 205 C174.9972452 197.9986226 149.93626688 207.12248472 136.25 211.5625 C109.28792316 220.70918883 77.66071044 234.67449844 56.078125 253.69360352 C53.33210696 255.41986556 52.13660084 255.06827981 49.01171875 254.36328125 C48.0376709 254.15268066 47.06362305 253.94208008 46.06005859 253.72509766 C45.05023926 253.48581543 44.04041992 253.2465332 43 253 C42.0404541 252.78263184 41.0809082 252.56526367 40.09228516 252.34130859 C38.07992252 251.88163523 36.06898269 251.41569955 34.05932617 250.94433594 C10.35052348 245.4178085 -13.70379442 241.64303152 -38 240 C-38.7532959 239.94360352 -39.5065918 239.88720703 -40.28271484 239.82910156 C-90.70061294 236.09607866 -143.45056264 240.60611065 -192.19921875 254.43359375 C-196.58964581 255.32147649 -198.56008483 254.27169732 -202.37109375 251.91796875 C-203.72876658 251.01110359 -205.08407734 250.10069605 -206.4375 249.1875 C-221.31900114 239.36561176 -236.87397431 230.60848026 -253 223 C-253.6909375 222.6704834 -254.381875 222.3409668 -255.09375 222.00146484 C-280.6411778 209.90461894 -305.63330511 202.9421485 -334 204 C-334.09667969 204.6290625 -334.19335938 205.258125 -334.29296875 205.90625 C-335.07609999 209.33299003 -336.20029438 212.53215063 -337.37451172 215.84130859 C-341.44887153 227.38992345 -344.12913104 238.90731595 -346 251 C-346.1757959 252.09038574 -346.3515918 253.18077148 -346.53271484 254.30419922 C-347.39004356 261.08488997 -347.24476866 267.92407533 -347.25 274.75 C-347.25067474 275.53689209 -347.25134949 276.32378418 -347.25204468 277.13452148 C-347.22827464 294.56706542 -344.7760109 310.23906287 -340.0859375 327.0234375 C-339.89829834 327.71824219 -339.71065918 328.41304688 -339.51733398 329.12890625 C-339.08652221 330.68706643 -338.60946685 332.23234904 -338.12109375 333.7734375 C-338 336 -338 336 -339.44921875 338.078125 C-340.18785156 338.79484375 -340.92648437 339.5115625 -341.6875 340.25 C-370.91533824 370.88695641 -388.00513952 416.54170253 -388.203125 458.578125 C-388.21013931 459.57479187 -388.21715363 460.57145874 -388.22438049 461.59832764 C-388.24185378 464.8155979 -388.24823717 468.03268396 -388.25 471.25 C-388.25067474 472.34924805 -388.25134949 473.44849609 -388.25204468 474.58105469 C-388.22661845 500.65553495 -385.86743365 525.53314541 -380 551 C-379.83387207 551.72815918 -379.66774414 552.45631836 -379.49658203 553.20654297 C-372.23522806 584.31894746 -358.60030981 613.3206243 -337.84765625 637.66015625 C-336.21612502 639.72630256 -335.0576705 641.60224435 -334 644 C-333.34 644 -332.68 644 -332 644 C-330.7734375 645.28515625 -330.7734375 645.28515625 -329.375 647.0625 C-325.93085429 651.19217112 -322.15681649 654.59896833 -318 658 C-317.08605469 658.75152344 -316.17210937 659.50304687 -315.23046875 660.27734375 C-306.32097884 667.37131496 -296.84048521 673.2868853 -287 679 C-286.06099854 679.55300781 -286.06099854 679.55300781 -285.10302734 680.1171875 C-250.06966167 700.58136597 -208.69549474 707.99015273 -169.05493164 713.52270508 C-166.64412663 713.89936326 -164.34792371 714.34958858 -162 715 C-162 715.66 -162 716.32 -162 717 C-162.94875 717.7425 -163.8975 718.485 -164.875 719.25 C-179.94072353 731.88085912 -188.25466901 753.19927177 -192 772 C-192.15710281 774.06167221 -192.30483342 776.12411124 -192.4375 778.1875 C-193.04948989 781.78776483 -193.68119888 782.7492737 -196.59765625 785.04296875 C-220.50004188 797.91348409 -251.55007968 800.05482025 -277.33984375 792.5390625 C-306.13439519 783.31391112 -327.68880964 764.40012433 -342.7253418 738.41064453 C-346.23023672 732.42354052 -350.37368283 727.17108278 -355 722 C-355.88171875 720.97712891 -355.88171875 720.97712891 -356.78125 719.93359375 C-370.22513731 705.33990029 -389.06658563 696.70175577 -408 692 C-408.66386719 691.80664062 -409.32773437 691.61328125 -410.01171875 691.4140625 C-418.268311 689.694615 -427.2992999 690.59482227 -435 694 C-437.21760918 695.85544166 -437.21760918 695.85544166 -437.5625 698.625 C-436.70671715 703.75969711 -433.63115236 706.43381856 -430 710 C-429.50628906 710.49242187 -429.01257813 710.98484375 -428.50390625 711.4921875 C-424.6531768 715.03285821 -420.31184435 717.78419334 -415.9375 720.625 C-399.18100992 731.57307352 -385.91129042 745.25390757 -375 762 C-374.18402344 763.21236328 -374.18402344 763.21236328 -373.3515625 764.44921875 C-367.84046849 773.03661127 -364.42959778 782.72290037 -360.76171875 792.19921875 C-353.20923736 811.22316673 -342.5027985 826.73179056 -326 839 C-325.22398437 839.60199219 -324.44796875 840.20398438 -323.6484375 840.82421875 C-302.08454759 856.87092613 -274.5526524 863.57796321 -248 864 C-247.04947754 864.02046387 -246.09895508 864.04092773 -245.11962891 864.06201172 C-237.11051352 864.1598754 -229.32365848 863.56867635 -221.375 862.625 C-219.66957031 862.43550781 -219.66957031 862.43550781 -217.9296875 862.2421875 C-211.67138174 861.52449188 -205.50409834 860.61725766 -199.32666016 859.38037109 C-197 859 -197 859 -193 859 C-192.93034488 870.31829882 -192.87711003 881.63654624 -192.84456348 892.95501614 C-192.82893906 898.2112176 -192.80775977 903.46727189 -192.77368164 908.72338867 C-192.74097312 913.80030314 -192.72312276 918.87707647 -192.71536827 923.95408821 C-192.70984536 925.88647748 -192.6990606 927.81885945 -192.68280983 929.75118828 C-192.66088267 932.46767462 -192.65803943 935.18358522 -192.65942383 937.90014648 C-192.648638 938.69065399 -192.63785217 939.4811615 -192.6267395 940.29562378 C-192.67705749 949.48096139 -195.5473039 957.5473039 -202.125 964.125 C-209.99249486 969.25597491 -217.64265075 971.45130254 -227 970 C-275.1405117 958.38102449 -325.24298084 930.18843264 -364.21386719 900.35791016 C-366.13133172 898.90015486 -368.06726847 897.46983936 -370.0078125 896.04296875 C-377.56085231 890.47294912 -384.87083198 884.7160021 -391.9765625 878.5859375 C-394.83533148 876.14084051 -397.74789217 873.78424575 -400.6875 871.4375 C-405.45044809 867.57546145 -409.74917479 863.38005558 -414.00390625 858.96875 C-415.84739306 856.94727107 -415.84739306 856.94727107 -418 856 C-418 855.34 -418 854.68 -418 854 C-418.58136719 853.74476563 -419.16273438 853.48953125 -419.76171875 853.2265625 C-426.00821197 849.80352782 -430.70533599 843.26548336 -435.29296875 837.921875 C-436.92002562 836.0900398 -438.61302329 834.38871889 -440.375 832.6875 C-444.16168873 828.96858199 -447.42663779 824.88174761 -450.75 820.75 C-452.74997426 818.30558702 -454.81019476 815.95817349 -456.9375 813.625 C-483.02706462 784.50534815 -503.98312963 749.12713976 -520.99804688 714.05712891 C-522.02312541 711.95252078 -523.06608851 709.85735134 -524.109375 707.76171875 C-547.40151922 660.41161836 -561.64211686 608.26647744 -568 556 C-568.15098145 554.84790039 -568.30196289 553.69580078 -568.45751953 552.50878906 C-573.83122484 510.57417829 -573.10378116 466.80601693 -567 425 C-566.81276367 423.69627441 -566.62552734 422.39254883 -566.43261719 421.04931641 C-560.36153724 380.12981814 -549.08945332 340.0926634 -533 302 C-532.62746094 301.11666992 -532.25492188 300.23333984 -531.87109375 299.32324219 C-527.67073772 289.45395546 -523.06364696 279.80120399 -518.15869141 270.26416016 C-516.87706817 267.75978303 -515.61702698 265.24500933 -514.35546875 262.73046875 C-500.92461999 236.20809618 -484.54652178 211.23260507 -466 188 C-465.4961377 187.36610352 -464.99227539 186.73220703 -464.47314453 186.07910156 C-458.26516594 178.28789263 -451.95000498 170.67045266 -445.1796875 163.359375 C-443.32712724 161.35409472 -441.52853317 159.32053115 -439.75 157.25 C-424.53941579 139.79937726 -424.53941579 139.79937726 -415.7109375 132.4609375 C-413.92541819 130.93631599 -412.3164164 129.31509636 -410.6875 127.625 C-406.96400018 123.83364597 -402.87181535 120.56500693 -398.734375 117.23828125 C-396.37330922 115.30558026 -394.11882708 113.3155385 -391.875 111.25 C-323.6219508 50.02834841 -231.96009045 13.12932529 -142 0 C-141.33512573 -0.09923767 -140.67025146 -0.19847534 -139.98522949 -0.30072021 C-94.37185505 -7.05719619 -45.58696369 -6.76359505 0 0 Z " fill="#FFFFFF" transform="translate(572,5)"/>
</svg>
