<?xml version="1.0" encoding="UTF-8"?>
<svg version="1.1" xmlns="http://www.w3.org/2000/svg" width="955" height="955">
<path d="M0 0 C315.15 0 630.3 0 955 0 C955 315.15 955 630.3 955 955 C639.85 955 324.7 955 0 955 C0 639.85 0 324.7 0 0 Z " fill="#000000" transform="translate(0,0)"/>
<path d="M0 0 C1.77697266 -0.02513672 1.77697266 -0.02513672 3.58984375 -0.05078125 C7.48051484 0.35622934 9.7920714 1.1771846 13.0625 3.3125 C15.63163097 6.86141439 16.4387273 9.33908884 16.45018005 13.69480896 C16.46008469 14.76160889 16.46998932 15.82840881 16.48019409 16.92753601 C16.47569244 18.08767715 16.4711908 19.2478183 16.46655273 20.44311523 C16.47341599 21.67291107 16.48027924 22.90270691 16.48735046 24.16976929 C16.50250215 27.53565835 16.50411629 30.90099297 16.49840808 34.26687503 C16.49531409 37.07997097 16.50141102 39.89301695 16.50744683 42.70610577 C16.52148599 49.34423336 16.51993599 55.98223225 16.50854492 62.62036133 C16.4970649 69.46136657 16.51113845 76.30197973 16.5379414 83.14293331 C16.56011566 89.02336204 16.5667319 94.90366784 16.56086498 100.7841354 C16.5574982 104.29320705 16.55989153 107.8020274 16.57711601 111.31106377 C16.59549023 115.22502829 16.58138019 119.13851256 16.56420898 123.05249023 C16.57387695 124.21060715 16.58354492 125.36872406 16.59350586 126.56193542 C16.53637251 132.77610083 16.27702815 136.60643744 12.0625 141.3125 C8.46606085 144.14235121 4.00700986 143.64371055 -0.375 143.625 C-1.50131836 143.64916992 -1.50131836 143.64916992 -2.65039062 143.67382812 C-7.2509854 143.67787438 -10.1792743 143.23713429 -13.9375 140.3125 C-15.75 138.125 -15.75 138.125 -16.9375 136.3125 C-17.948125 137.09625 -18.95875 137.88 -20 138.6875 C-27.433084 144.45193249 -37.00246213 144.05317995 -45.9375 143.3125 C-53.49034969 141.6010673 -59.20760553 137.35822796 -64.9375 132.3125 C-65.5665625 131.7659375 -66.195625 131.219375 -66.84375 130.65625 C-76.15021314 122.00287199 -81.32490079 110.30832609 -82.09765625 97.69921875 C-82.55236031 82.45674773 -77.56979234 70.85518015 -67.546875 59.63671875 C-58.32962322 50.79113035 -48.01725005 45.98049777 -35.3046875 46.09375 C-28.52470328 46.53421301 -22.82406797 48.42593203 -17.9375 53.3125 C-17.9375 53.9725 -17.9375 54.6325 -17.9375 55.3125 C-17.2775 55.3125 -16.6175 55.3125 -15.9375 55.3125 C-15.94638245 54.7222554 -15.95526489 54.1320108 -15.9644165 53.52388 C-16.05297008 47.3758005 -16.11326748 41.22790242 -16.15722656 35.0793457 C-16.17733106 32.78532552 -16.20461891 30.49135652 -16.23925781 28.19750977 C-16.28782559 24.89847174 -16.31048077 21.60011178 -16.328125 18.30078125 C-16.34877014 17.27664627 -16.36941528 16.25251129 -16.39068604 15.19734192 C-16.39292921 8.06506142 -16.39292921 8.06506142 -14.05786133 4.20654297 C-9.708109 0.32106472 -5.70912484 0.0185965 0 0 Z " fill="#FDFDFD" transform="translate(197.9375,467.6875)"/>
<path d="M0 0 C1.83984375 1.54296875 1.83984375 1.54296875 3 3 C3 3.66 3 4.32 3 5 C3.66 5 4.32 5 5 5 C5.0825 4.2575 5.165 3.515 5.25 2.75 C6.15437599 -0.56604529 7.3714526 -1.83531391 10 -4 C13.57312995 -5.19104332 16.54553322 -5.20528823 20.3125 -5.25 C22.25576172 -5.28867187 22.25576172 -5.28867187 24.23828125 -5.328125 C28.33630189 -4.97066526 30.61509305 -4.32498659 34 -2 C36.87810641 2.59527351 37.43368886 6.53471613 37.38818359 11.83789062 C37.39344055 12.5996611 37.39869751 13.36143158 37.40411377 14.14628601 C37.41725502 16.64981951 37.40859685 19.15271069 37.3984375 21.65625 C37.40045993 23.40450156 37.40337278 25.1527523 37.40713501 26.90100098 C37.4115504 30.55924538 37.40515268 34.21726954 37.39111328 37.87548828 C37.37402181 42.55621116 37.38386721 47.23641792 37.40183067 51.91712189 C37.41268978 55.52545027 37.40921243 59.13365702 37.4014473 62.74198914 C37.39945117 64.46750449 37.40188388 66.19303102 37.40888596 67.91853333 C37.4165356 70.33335474 37.40484779 72.74734928 37.38818359 75.16210938 C37.39425629 75.86981979 37.40032898 76.57753021 37.40658569 77.3066864 C37.33734099 82.74425041 35.98172232 86.75752474 32.3671875 90.84765625 C28.68771723 92.63881752 25.16311764 92.47337988 21.125 92.4375 C20.33480469 92.45748047 19.54460937 92.47746094 18.73046875 92.49804688 C13.37720952 92.49359325 10.19551824 91.62160301 6 88 C5.125 85.25 5.125 85.25 5 83 C4.34 83 3.68 83 3 83 C2.75121094 83.61488281 2.50242187 84.22976563 2.24609375 84.86328125 C0.77569389 87.38462521 -0.31376453 87.99045123 -2.9375 89.1875 C-3.62714844 89.51105469 -4.31679688 89.83460938 -5.02734375 90.16796875 C-12.66397272 93.38896275 -22.97889466 93.62489434 -30.84765625 90.82421875 C-45.03587265 84.24076064 -54.6943873 72.8650769 -60.375 58.4375 C-63.94188447 46.7926713 -63.25817294 33.99576752 -58 23 C-51.30480644 10.55423177 -41.93433465 1.23164842 -28.5625 -3.9375 C-18.32360724 -6.83426859 -9.21504621 -5.11947012 0 0 Z " fill="#FCFCFC" transform="translate(292,357)"/>
<path d="M0 0 C1.2694043 -0.03673828 1.2694043 -0.03673828 2.56445312 -0.07421875 C6.74859102 -0.09387797 8.97601036 0.00816092 12.59765625 2.2734375 C15.5014143 5.37924631 15.68644912 7.04324908 15.67602539 11.19189453 C15.67594986 12.19278107 15.67587433 13.1936676 15.67579651 14.22488403 C15.67063522 15.30825043 15.66547394 16.39161682 15.66015625 17.5078125 C15.6587413 18.61478485 15.65732635 19.7217572 15.65586853 20.86227417 C15.65025772 24.40820993 15.63770337 27.95408323 15.625 31.5 C15.61998639 33.89973867 15.61542325 36.29947833 15.61132812 38.69921875 C15.60028478 44.59116725 15.5835361 50.48307916 15.5625 56.375 C16.2225 56.375 16.8825 56.375 17.5625 56.375 C17.81128906 55.78203125 18.06007812 55.1890625 18.31640625 54.578125 C20.86151096 50.07831605 24.80644303 48.10397309 29.5625 46.375 C41.84108668 44.16092206 52.3574207 46.29750114 62.5625 53.375 C72.22337 60.92012391 79.41349117 73.1399674 80.93508911 85.36964417 C81.06983674 88.542169 81.09141333 91.69199982 81.05859375 94.8671875 C81.06004898 96.01615509 81.06150421 97.16512268 81.06300354 98.34890747 C81.06135476 100.75737059 81.04990935 103.16584538 81.02905273 105.57421875 C80.99991409 109.26086901 81.00850297 112.94609473 81.02148438 116.6328125 C81.01525144 118.98177781 81.006864 121.33073861 80.99609375 123.6796875 C80.99902939 124.77868378 81.00196503 125.87768005 81.00498962 127.00997925 C80.99230545 128.03519684 80.97962128 129.06041443 80.96655273 130.11669922 C80.95844826 131.46258621 80.95844826 131.46258621 80.95018005 132.83566284 C80.47376959 135.95619169 79.40603571 137.82922893 77.5625 140.375 C71.40225116 144.25863514 64.67078739 144.17971178 57.5625 143.375 C53.95150441 142.24618457 51.36120569 140.75245597 49.40380859 137.37670898 C48.15897485 132.93526069 48.28430204 128.62637871 48.2890625 124.03515625 C48.26877673 121.98241639 48.24792601 119.92968205 48.2265625 117.87695312 C48.20395627 114.65335415 48.18748635 111.42997347 48.18164062 108.20629883 C48.17210898 105.08635402 48.13832851 101.9673825 48.1015625 98.84765625 C48.10913071 97.40834496 48.10913071 97.40834496 48.11685181 95.93995667 C48.03117467 90.09800518 47.38054679 86.86260639 43.5625 82.375 C39.64947878 78.81770798 35.4306091 78.81320136 30.35546875 78.95703125 C25.07333821 79.74750393 21.31233004 82.2123465 17.984375 86.32543945 C15.90810143 90.77851863 16.14104121 94.89373275 16.15625 99.75 C16.14541382 100.75208496 16.13457764 101.75416992 16.12341309 102.78662109 C16.08919128 105.98281341 16.07356503 109.17864864 16.0625 112.375 C16.04793053 116.58367669 16.01425857 120.79155672 15.96875 125 C15.97177124 125.96470215 15.97479248 126.9294043 15.97790527 127.92333984 C15.92278061 132.8542518 15.87307985 136.42831764 12.5625 140.375 C6.27077422 144.45346622 -0.18676747 144.13291629 -7.4375 143.375 C-10.56346624 142.42650127 -11.86840276 141.53537722 -14.4375 139.375 C-16.21613615 135.82303257 -16.68944103 132.93290709 -16.69819641 128.98596191 C-16.70528122 127.91771683 -16.71236603 126.84947174 -16.71966553 125.74885559 C-16.71718811 124.5871434 -16.71471069 123.42543121 -16.7121582 122.22851562 C-16.71726913 120.99711349 -16.72238007 119.76571136 -16.72764587 118.49699402 C-16.73915292 115.12714589 -16.74161741 111.75754396 -16.73908257 108.38769341 C-16.73801145 105.57202775 -16.74289972 102.7563847 -16.747688 99.9407239 C-16.75877427 93.29786768 -16.75922521 86.65506802 -16.75317383 80.01220703 C-16.74713066 73.16329719 -16.75945564 66.31459261 -16.7807439 59.46571779 C-16.79836379 53.58022392 -16.80436075 47.69479538 -16.80110615 41.8092761 C-16.79929414 38.29636265 -16.80192139 34.78359571 -16.81582069 31.27070618 C-16.83073799 27.35421699 -16.82142548 23.43798912 -16.80981445 19.52148438 C-16.81745819 18.35977219 -16.82510193 17.19806 -16.83297729 16.00114441 C-16.82596298 14.93289932 -16.81894867 13.86465424 -16.8117218 12.76403809 C-16.81188954 11.83859947 -16.81205729 10.91316086 -16.81223011 9.95967865 C-16.3580672 6.82711701 -15.26180942 4.93948666 -13.4375 2.375 C-9.27791722 -0.43129931 -4.84567244 0.00734749 0 0 Z " fill="#FDFDFD" transform="translate(134.4375,306.625)"/>
<path d="M0 0 C0.96381592 0.00757324 1.92763184 0.01514648 2.9206543 0.02294922 C15.14002298 0.30522786 25.00467373 3.89255363 34.05859375 12.21484375 C42.16607071 20.74077113 45.496511 30.85387025 45.328125 42.40234375 C44.88197154 49.06890608 43.08652865 52.8694942 38.125 57.375 C34.25814171 60.59005831 31.38579579 61.56416876 26.37817383 61.55102539 C25.41740433 61.55094986 24.45663483 61.55087433 23.4667511 61.55079651 C22.43229355 61.54563522 21.397836 61.54047394 20.33203125 61.53515625 C19.27086594 61.5337413 18.20970062 61.53232635 17.11637878 61.53086853 C13.72339065 61.52526606 10.33046823 61.51271314 6.9375 61.5 C4.63867283 61.49498532 2.33984462 61.49042236 0.04101562 61.48632812 C-5.59767872 61.47529583 -11.23633466 61.4585553 -16.875 61.4375 C-14.89976898 67.24084319 -14.89976898 67.24084319 -10.27734375 70.84765625 C-5.66984798 72.81928969 -1.39201102 72.99896275 3.5625 72.875 C4.35720703 72.88208984 5.15191406 72.88917969 5.97070312 72.89648438 C11.12433167 72.84197081 15.328741 71.89076716 20.15844727 70.12524414 C23.84743058 68.83513042 27.3073749 68.66355651 31.125 69.4375 C35.64995615 72.6552466 38.27773325 77.26120172 40.125 82.4375 C40.70782076 86.66295054 40.44008837 88.76793721 38.625 92.625 C35.43488834 96.21387562 32.58028217 97.76954911 28.125 99.4375 C27.33996094 99.73785156 26.55492187 100.03820312 25.74609375 100.34765625 C18.71947943 102.54666947 11.7995633 102.71972344 4.5 102.75 C3.53441162 102.75547852 2.56882324 102.76095703 1.57397461 102.76660156 C-12.78181616 102.62459835 -26.13043066 99.32413795 -36.875 89.4375 C-37.49117187 88.87546875 -38.10734375 88.3134375 -38.7421875 87.734375 C-49.445729 76.79297702 -52.17144298 62.90304481 -52.19189453 48.2199707 C-52.09908185 40.92042536 -51.46302515 34.91371877 -47.875 28.4375 C-47.42769531 27.57253906 -46.98039063 26.70757813 -46.51953125 25.81640625 C-39.79472777 13.68291364 -29.20975813 6.083482 -16.10546875 1.73046875 C-10.71477308 0.21214988 -5.57764385 -0.06167469 0 0 Z " fill="#FCFCFC" transform="translate(280.875,511.5625)"/>
<path d="M0 0 C4.04510286 1.99469912 5.93452179 3.92925849 8.12890625 7.83984375 C8.68360596 8.81155518 9.23830566 9.7832666 9.80981445 10.78442383 C10.38820068 11.82493896 10.96658691 12.8654541 11.5625 13.9375 C12.79558139 16.10750642 14.02998018 18.27676472 15.265625 20.4453125 C15.88501953 21.53875977 16.50441406 22.63220703 17.14257812 23.75878906 C20.441868 29.51606724 23.89954899 35.17751194 27.35571289 40.84155273 C28.05555298 41.99699585 28.05555298 41.99699585 28.76953125 43.17578125 C29.17792236 43.84520752 29.58631348 44.51463379 30.00708008 45.2043457 C31 47 31 47 32 50 C32.66 50 33.32 50 34 50 C34.10868408 49.30720947 34.21736816 48.61441895 34.3293457 47.90063477 C35.10090726 44.56356783 36.32321208 41.71313468 37.73046875 38.58984375 C38.00337234 37.98169327 38.27627594 37.37354279 38.55744934 36.7469635 C39.13586608 35.4608197 39.71678525 34.17579874 40.30004883 32.8918457 C41.17266028 30.97018005 42.03720326 29.0450548 42.90039062 27.11914062 C53.27928549 4.04935874 53.27928549 4.04935874 57 1 C63.91649352 -0.38579563 70.06505457 1.47754193 76 5 C78.82300661 6.98677986 81.42581674 8.85163348 83 12 C83.00900532 20.38395597 79.53095271 27.16867837 76.00323486 34.57455444 C74.53198761 37.66403886 73.09012249 40.7669614 71.6461792 43.86927795 C70.89081124 45.49163719 70.13399937 47.11332488 69.37579346 48.73435974 C65.85207313 56.27676783 62.45858987 63.87370611 59.09585571 71.48898315 C57.46105679 75.19100903 55.82038715 78.89043005 54.1796875 82.58984375 C53.84759781 83.33881424 53.51550812 84.08778473 53.1733551 84.85945129 C49.2899256 93.61107359 45.3740344 102.34810596 41.44915771 111.08120728 C40.65836635 112.84115779 39.86819118 114.60138533 39.07867432 116.36190796 C37.97604828 118.8201758 36.87116097 121.27741469 35.765625 123.734375 C35.44336945 124.45367691 35.12111389 125.17297882 34.78909302 125.91407776 C27.83251821 141.34269483 27.83251821 141.34269483 24 143 C17.06336834 144.43465516 11.82214054 141.89825933 5.69921875 138.80078125 C2.61476974 136.74299399 0.83548903 135.24043126 -1 132 C-1.08376096 124.95646441 1.81613716 119.13355855 4.6875 112.8125 C5.13577148 111.79744385 5.58404297 110.7823877 6.04589844 109.73657227 C7.97438485 105.39053583 9.93476996 101.07078886 12.06640625 96.8203125 C12.89978516 95.14582031 12.89978516 95.14582031 13.75 93.4375 C14.23984375 92.50808594 14.7296875 91.57867187 15.234375 90.62109375 C16.31708742 86.91446093 15.62886968 85.5257812 14 82 C11.95799884 78.31007494 9.76862914 74.71864428 7.5625 71.125 C6.5653323 69.48175382 5.56820052 67.83848541 4.57229614 66.19447327 C3.86175379 65.02182194 3.15053563 63.84957988 2.43869019 62.67771912 C-1.74209603 55.79191063 -5.86540105 48.87202744 -9.98074341 41.94696045 C-11.2317824 39.84313584 -12.48579182 37.74110235 -13.73999023 35.63916016 C-14.51953584 34.32855004 -15.29892162 33.01784485 -16.078125 31.70703125 C-16.60694023 30.82249519 -16.60694023 30.82249519 -17.1464386 29.92008972 C-23.92645544 18.48518808 -23.92645544 18.48518808 -23 12 C-18.56101637 4.49964835 -8.83535714 -1.59036429 0 0 Z " fill="#FCFCFC" transform="translate(540,350)"/>
<path d="M0 0 C2.125 2.09765625 2.125 2.09765625 2.60546875 4.140625 C1.6113073 11.41788681 -1.69712793 16.91978418 -6.875 22.09765625 C-11.56521967 22.6964077 -14.53459519 21.92179061 -18.875 20.09765625 C-25.69076854 17.4244341 -32.65345438 17.31250717 -39.875 18.09765625 C-40.535 18.75765625 -41.195 19.41765625 -41.875 20.09765625 C-42.01587999 22.12661463 -42.01587999 22.12661463 -40.875 24.09765625 C-36.09487498 27.0262205 -31.80088993 27.69060582 -26.375 28.34765625 C-15.70540986 29.89935822 -4.91270773 33.28729328 2.01171875 42.12890625 C5.39067616 48.10432567 6.63390088 52.66666581 6.5 59.47265625 C6.48912354 60.22216553 6.47824707 60.9716748 6.46704102 61.74389648 C6.21409329 70.53406864 4.37277544 76.8209653 -1.8046875 83.30859375 C-13.81149804 93.68429041 -31.16582075 93.03768375 -46.14013672 92.34033203 C-55.85639296 91.47816825 -65.50164759 87.53834117 -72.875 81.09765625 C-74.77550102 78.24690473 -75.47116491 76.72894104 -75.3984375 73.33984375 C-73.97395195 67.23794294 -70.07307657 60.56304063 -64.875 57.09765625 C-58.55478077 56.99231926 -54.17845741 58.81373516 -48.625 61.66015625 C-40.52143053 65.76769715 -32.73815273 66.63602935 -23.875 64.09765625 C-23.875 62.77765625 -23.875 61.45765625 -23.875 60.09765625 C-27.79555515 58.90444381 -31.65901071 57.91748678 -35.6875 57.16015625 C-47.01361398 54.90518333 -59.42882251 51.67045656 -66.4375 41.72265625 C-67.29909304 40.20787911 -68.11491636 38.66582882 -68.875 37.09765625 C-69.21144531 36.4221875 -69.54789063 35.74671875 -69.89453125 35.05078125 C-73.04170886 27.40558266 -73.29674874 18.05403032 -71.03125 10.15625 C-67.87147286 3.16417558 -63.07960191 -1.96810893 -56.08984375 -5.18359375 C-38.3264531 -11.87773828 -16.10608141 -10.65714898 0 0 Z " fill="#FCFCFC" transform="translate(757.875,358.90234375)"/>
<path d="M0 0 C4.03328908 2.71878247 6.10854697 5.42469616 8.34765625 9.70703125 C8.94763428 10.84108398 9.5476123 11.97513672 10.16577148 13.14355469 C10.79827276 14.36640282 11.4305102 15.58938745 12.0625 16.8125 C12.71915262 18.06334092 13.37679681 19.31366177 14.03540039 20.56347656 C15.70987733 23.74748906 17.37103308 26.93824136 19.02844238 30.13116455 C20.56121488 33.07952245 22.10530289 36.02189581 23.6484375 38.96484375 C26.44462207 44.30352924 29.22796985 49.64873569 32 55 C36.76887751 46.61799647 41.42414728 38.19177509 45.79296875 29.59375 C46.11938858 28.95338303 46.44580841 28.31301605 46.78211975 27.65324402 C48.41533812 24.44711282 50.03778695 21.23620237 51.64477539 18.0168457 C59.29877841 2.85061079 59.29877841 2.85061079 65 0 C73.67034371 -0.42977997 80.30896601 3.74837482 86.625 9.3125 C88.61857732 13.20903749 88.49231739 16.69310509 88 21 C87.10051853 23.77225682 85.7769851 26.17500051 84.3125 28.6875 C83.91095703 29.40969727 83.50941406 30.13189453 83.09570312 30.87597656 C81.75481764 33.26550327 80.38217838 35.63413896 79 38 C78.29302979 39.21647217 78.29302979 39.21647217 77.57177734 40.45751953 C74.96872522 44.92249506 72.33520372 49.36839884 69.68359375 53.8046875 C66.95555301 58.37470015 64.26785821 62.96641208 61.59765625 67.5703125 C60.8379716 68.87732572 60.07820598 70.18429187 59.31835938 71.49121094 C58.2013339 73.41257638 57.08575007 75.33468961 55.9753418 77.2598877 C44.11771295 97.80993448 44.11771295 97.80993448 37 100 C32.09824573 100.63274279 28.27569575 100.58878265 23.75 98.5 C17.14492649 92.49538771 12.89164277 84.67799156 8.5 77 C7.26447315 74.86059032 6.02879161 72.72126996 4.79296875 70.58203125 C4.16567871 69.49229004 3.53838867 68.40254883 2.89208984 67.27978516 C0.46911565 63.07975479 -1.97534159 58.89251283 -4.42333984 54.70703125 C-5.59462405 52.70226471 -6.76294566 50.6957642 -7.92822266 48.6875 C-10.68062062 43.94538846 -13.45998811 39.22632922 -16.32421875 34.55078125 C-16.84024658 33.69589111 -17.35627441 32.84100098 -17.88793945 31.96020508 C-18.84484179 30.37709807 -19.81505531 28.8019215 -20.80151367 27.23706055 C-23.80659076 22.22250594 -24.73584886 18.85613054 -24 13 C-19.86960098 4.75287878 -9.17923123 -1.61986433 0 0 Z " fill="#FCFCFC" transform="translate(360,512)"/>
<path d="M0 0 C3.29092561 1.75963777 5.45698608 3.62359252 6.9140625 7.0234375 C8.55611689 14.82951146 6.13507507 20.72477412 2.51953125 27.58984375 C0.9140625 30.0234375 0.9140625 30.0234375 -2.0859375 32.0234375 C-4.71484375 32.25390625 -4.71484375 32.25390625 -7.6484375 32.2109375 C-8.61910156 32.20449219 -9.58976562 32.19804687 -10.58984375 32.19140625 C-13.0859375 32.0234375 -13.0859375 32.0234375 -15.0859375 31.0234375 C-20.45356477 30.4884289 -24.78525187 30.36168516 -29.6484375 32.8359375 C-32.21860297 35.14249626 -33.94271953 36.76846328 -34.34422302 40.28671265 C-34.34849808 41.17097931 -34.35277313 42.05524597 -34.35717773 42.96630859 C-34.36736435 43.97100189 -34.37755096 44.97569519 -34.38804626 46.01083374 C-34.39018631 47.09522736 -34.39232635 48.17962097 -34.39453125 49.296875 C-34.41969091 51.58854421 -34.44508894 53.88021082 -34.47070312 56.171875 C-34.49945645 59.78840463 -34.52347097 63.40488898 -34.54223633 67.02148438 C-34.56388091 70.50935398 -34.60332129 73.99668976 -34.64453125 77.484375 C-34.64464706 78.56472015 -34.64476288 79.64506531 -34.6448822 80.75814819 C-34.77085213 90.30589856 -34.77085213 90.30589856 -38.0859375 94.0234375 C-44.55314724 97.43342082 -50.86033192 97.77546959 -58.0859375 97.0234375 C-62.36014926 95.52371407 -64.76816891 93.92704776 -67.0859375 90.0234375 C-68.27214459 86.46481623 -68.24130782 83.22992333 -68.24707031 79.52612305 C-68.25203522 78.76479065 -68.25700012 78.00345825 -68.26211548 77.21905518 C-68.27672467 74.69941301 -68.28353729 72.17983382 -68.2890625 69.66015625 C-68.29481532 67.90761819 -68.30057303 66.15508014 -68.30633545 64.40254211 C-68.31684213 60.72644762 -68.32268686 57.05037497 -68.32617188 53.37426758 C-68.33165356 48.66996885 -68.35567595 43.96596001 -68.38414383 39.26175213 C-68.40279317 35.64058089 -68.40797705 32.01947913 -68.40950775 28.39826393 C-68.41253001 26.66435983 -68.42054415 24.93045684 -68.43369293 23.19659996 C-68.45080041 20.76715603 -68.44886185 18.33841573 -68.44238281 15.90893555 C-68.4515976 15.19651199 -68.46081238 14.48408844 -68.4703064 13.75007629 C-68.43171414 9.116702 -67.55304202 5.94558241 -65.0859375 2.0234375 C-58.87989929 -2.14913287 -52.28792223 -1.60391309 -45.0859375 -0.9765625 C-40.83918394 0.04182702 -38.57164326 1.29487886 -36.0859375 5.0234375 C-36.0859375 6.3434375 -36.0859375 7.6634375 -36.0859375 9.0234375 C-35.4259375 9.0234375 -34.7659375 9.0234375 -34.0859375 9.0234375 C-33.85777344 8.42917969 -33.62960937 7.83492188 -33.39453125 7.22265625 C-31.72675518 4.41979677 -29.96624793 3.44552378 -27.1484375 1.8359375 C-26.27316406 1.32675781 -25.39789063 0.81757813 -24.49609375 0.29296875 C-17.13886901 -3.58239274 -7.62824857 -3.02356034 0 0 Z " fill="#FBFBFB" transform="translate(501.0859375,352.9765625)"/>
<path d="M0 0 C2.44251604 1.52775134 3.61554633 2.74370157 5.0234375 5.265625 C6.21177307 13.26280218 5.25659046 20.37375492 1.0234375 27.265625 C0.5078125 28.11125 -0.0078125 28.956875 -0.5390625 29.828125 C-4.67178122 32.26536937 -9.30106572 31.70105294 -13.9765625 31.265625 C-14.9665625 30.935625 -15.9565625 30.605625 -16.9765625 30.265625 C-19.48103972 29.91776087 -19.48103972 29.91776087 -22.2265625 29.828125 C-23.59554687 29.73724609 -23.59554687 29.73724609 -24.9921875 29.64453125 C-29.43898327 30.56997697 -32.25140056 32.62697027 -34.9765625 36.265625 C-35.95798276 40.04315506 -35.86150097 43.69373907 -35.7734375 47.578125 C-35.77861389 48.66520752 -35.78379028 49.75229004 -35.78912354 50.87231445 C-35.80100145 54.33768018 -35.76651878 57.80050099 -35.7265625 61.265625 C-35.70779067 64.73023019 -35.69907625 68.19428661 -35.70684814 71.65893555 C-35.70952029 73.81148832 -35.6958585 75.96414002 -35.66375732 78.11645508 C-35.64817862 83.57639853 -35.78793117 87.59730201 -38.9765625 92.265625 C-41.5390625 94.078125 -41.5390625 94.078125 -43.9765625 95.265625 C-44.9665625 95.760625 -44.9665625 95.760625 -45.9765625 96.265625 C-52.99700355 96.87220702 -59.20199896 96.92341946 -65.48828125 93.53125 C-67.44443631 91.86774806 -68.04769596 90.68913477 -68.9765625 88.265625 C-69.17699836 85.60213599 -69.27033913 83.04283237 -69.26708984 80.37939453 C-69.27380707 79.5886554 -69.28052429 78.79791626 -69.28744507 77.98321533 C-69.30642858 75.37155864 -69.31034943 72.76015888 -69.3125 70.1484375 C-69.31892771 68.33006688 -69.32565605 66.5116973 -69.33267212 64.69332886 C-69.34464578 60.88195396 -69.34835285 57.07066972 -69.34716797 53.25927734 C-69.34696478 48.3811386 -69.37426626 43.50358245 -69.40871239 38.62558174 C-69.4309762 34.86971377 -69.43500567 31.11398613 -69.43394852 27.35805893 C-69.43630528 25.55995552 -69.44513307 23.76184829 -69.46061325 21.96380997 C-69.48026299 19.44567603 -69.47443978 16.92879977 -69.46240234 14.41064453 C-69.47364136 13.67173981 -69.48488037 12.93283508 -69.49645996 12.17153931 C-69.43472665 7.07605849 -68.15978652 4.20418398 -64.9765625 0.265625 C-59.92898148 -3.55030226 -51.99706618 -2.14003461 -45.9765625 -1.734375 C-42.8904844 -1.14489941 -41.64109727 -0.55110325 -38.9765625 1.265625 C-37.0390625 4.453125 -37.0390625 4.453125 -35.9765625 7.265625 C-35.3578125 6.68554688 -35.3578125 6.68554688 -34.7265625 6.09375 C-24.17973154 -3.4172315 -13.48945775 -5.64674976 0 0 Z " fill="#FBFBFB" transform="translate(414.9765625,353.734375)"/>
<path d="M0 0 C2.6206854 2.50582315 2.9888802 3.89626955 3.38095093 7.55368042 C3.39873824 8.99775624 3.39998757 10.44209335 3.38818359 11.88623047 C3.39344055 12.6769696 3.39869751 13.46770874 3.40411377 14.28240967 C3.417308 16.89420376 3.40857621 19.50538728 3.3984375 22.1171875 C3.40045881 23.93555824 3.40337072 25.75392818 3.40713501 27.57229614 C3.41155792 31.38372514 3.4051299 35.19494319 3.39111328 39.00634766 C3.37404573 43.88441766 3.38384732 48.76199158 3.40183067 53.64004326 C3.41269019 57.39592195 3.40921181 61.15168379 3.4014473 64.90756607 C3.39945002 66.70564966 3.40188794 68.50374395 3.40888596 70.30181503 C3.41653345 72.81982099 3.40484944 75.33703336 3.38818359 77.85498047 C3.39729263 78.96333755 3.39729263 78.96333755 3.40658569 80.09408569 C3.34927531 84.78507684 2.5583236 88.0531796 0 92 C-6.39738077 95.48948042 -12.8127429 95.74804082 -20 95 C-24.30597184 93.48913269 -26.73536693 91.95220316 -29 88 C-29.29538621 85.2293548 -29.42039021 82.684221 -29.40405273 79.91430664 C-29.41091599 79.10245407 -29.41777924 78.2906015 -29.42485046 77.45414734 C-29.44313959 74.77263865 -29.43927796 72.09171388 -29.43359375 69.41015625 C-29.43815464 67.54454864 -29.44345993 65.67894271 -29.44947815 63.81333923 C-29.45841347 59.90356623 -29.45598145 55.99399743 -29.44604492 52.08422852 C-29.43455636 47.07592914 -29.45476277 42.06833494 -29.48396206 37.06012821 C-29.50231608 33.20734688 -29.50203317 29.35473478 -29.49632454 25.5019207 C-29.49617122 23.65555266 -29.50222453 21.80917322 -29.51461601 19.96284676 C-29.52950881 17.37981173 -29.51886213 14.79808231 -29.50170898 12.21508789 C-29.51137695 11.45388641 -29.52104492 10.69268494 -29.53100586 9.90841675 C-29.4626318 4.98670979 -28.52649397 2.44249414 -25 -1 C-17.34007452 -5.14964866 -7.49995648 -3.81815966 0 0 Z " fill="#FDFDFD" transform="translate(665,355)"/>
<path d="M0 0 C5.29411765 3.17647059 5.29411765 3.17647059 6.36328125 6.29296875 C7.00413776 9.70901256 7.07733431 13.09879316 7.125 16.5625 C7.15400391 17.25730469 7.18300781 17.95210938 7.21289062 18.66796875 C7.27652642 23.86652379 6.23468945 26.79426291 2.8125 30.6875 C-3.65292482 34.97662474 -10.71034399 34.42055451 -18.1875 33.6875 C-21.89809068 32.59199227 -24.38633705 31.12794709 -26.328125 27.63671875 C-27.54214715 23.47041545 -27.59523267 19.50706967 -27.625 15.1875 C-27.65787109 14.34574219 -27.69074219 13.50398438 -27.72460938 12.63671875 C-27.76267295 8.24210564 -27.65904735 6.3022101 -24.91015625 2.71875 C-17.8816361 -2.52490922 -8.2859152 -3.37837744 0 0 Z " fill="#FAFAFA" transform="translate(804.1875,416.3125)"/>
<path d="M0 0 C0.70769531 -0.01224609 1.41539062 -0.02449219 2.14453125 -0.03710938 C6.23332016 -0.04853057 9.57665858 0.06994141 13.125 2.1875 C16.47762277 6.1769747 16.58372084 10.11570278 16.5 15.125 C16.51160156 15.81529297 16.52320313 16.50558594 16.53515625 17.21679688 C16.50828487 21.94168096 15.81586875 25.2874434 13.125 29.1875 C8.65391951 32.23684123 4.90253032 32.59483116 -0.4375 32.5625 C-2.35755859 32.57410156 -2.35755859 32.57410156 -4.31640625 32.5859375 C-9.12807066 32.0472001 -11.55982737 30.75647788 -14.65625 27.0625 C-16.35291442 23.06011214 -16.38897955 19.49320224 -16.375 15.1875 C-16.41753906 13.99640625 -16.41753906 13.99640625 -16.4609375 12.78125 C-16.47536763 8.4522107 -16.28067473 6.70676365 -13.53125 3.1875 C-9.16124272 -0.10285842 -5.25906544 0.0047379 0 0 Z " fill="#FBFBFB" transform="translate(651.875,306.8125)"/>
<path d="M0 0 C4.30092905 4.19340582 6.68051895 7.88718899 7.0625 13.875 C6.74088216 20.37389838 3.44251944 24.63050517 -1.1875 28.9375 C-5.77235864 31.0136624 -9.5553756 31.44318632 -14.5 30.4375 C-18.80783196 28.31627415 -21.69249087 25.54782506 -24.5 21.6875 C-26.14735812 16.33358611 -26.93301467 11.22932794 -24.29296875 6.0859375 C-18.30198712 -2.25593566 -9.58208413 -4.27771613 0 0 Z " fill="#040404" transform="translate(174.5,548.5625)"/>
<path d="M0 0 C4.43188291 1.97851916 7.08324415 4.56885601 9.296875 8.94921875 C10.69593682 13.02981573 10.87006084 16.78152322 10 21 C7.862324 25.33391846 5.1038374 28.21504896 1.1875 31 C-3.88583265 32.59163377 -8.35178332 33.33790113 -13.25 30.86328125 C-17.48960342 27.89400018 -20.44578963 25.05118369 -22 20 C-22.75671571 14.8147776 -22.80249578 10.51448109 -19.8125 6.0625 C-14.5949783 -0.67886931 -7.94843386 -0.94906673 0 0 Z " fill="#040404" transform="translate(285,385)"/>
<path d="M0 0 C4.3498054 2.1749027 7.26209405 4.39966072 9 9 C9.28997375 13.74502498 8.67818111 17.65979755 5.6875 21.4375 C2.3761562 24.59482781 0.68779789 25.77496028 -3.8125 26.375 C-7.94380829 25.88896373 -10.77633544 24.6212626 -14 22 C-16.657719 18.22775368 -17.64827317 14.6861499 -17.49609375 10.03125 C-16.56122422 6.20343775 -13.87712858 3.57152684 -11 1 C-7.5259169 -0.73704155 -3.79843331 -0.46041616 0 0 Z " fill="#F1F1F1" transform="translate(164,663)"/>
<path d="M0 0 C4.38410756 2.19205378 7.13092657 4.43115383 9 9 C9.59022782 13.06601386 9.92857008 15.46139844 7.79296875 19 C4.43780243 23.07716413 1.49322508 25.67479673 -3.875 26.375 C-8.85609315 25.77726882 -12.82603525 22.84216786 -16 19 C-17.2517847 15.24464589 -17.77373976 11.88289586 -17 8 C-12.60399609 0.92581525 -8.16439194 -0.98962327 0 0 Z " fill="#F2F2F2" transform="translate(274,663)"/>
<path d="M0 0 C12.67567568 0 12.67567568 0 17 4 C19.37302167 6.92672672 19.95966626 8.68309204 20.4375 12.4375 C19.80500619 17.5878067 17.72792721 20.42915709 13.9375 23.875 C11 25 11 25 0 25 C0 16.75 0 8.5 0 0 Z " fill="#F7F7F7" transform="translate(184,663)"/>
<path d="M0 0 C1.98 0 3.96 0 6 0 C8.1171875 2.51953125 8.1171875 2.51953125 9.875 5.8125 C10.47054688 6.89144531 11.06609375 7.97039063 11.6796875 9.08203125 C13 12 13 12 13 15 C13.66 15 14.32 15 15 15 C15 10.05 15 5.1 15 0 C16.65 0 18.3 0 20 0 C20 8.25 20 16.5 20 25 C18.02 25 16.04 25 14 25 C11.69 20.71 9.38 16.42 7 12 C6.67 16.29 6.34 20.58 6 25 C4.02 25 2.04 25 0 25 C0 16.75 0 8.5 0 0 Z " fill="#F4F4F4" transform="translate(353,663)"/>
<path d="M0 0 C2.70934696 1.24225245 4.88072164 2.88072164 7 5 C7.27314815 10.73611111 7.27314815 10.73611111 7 13 C5 15 5 15 2.20263672 15.22705078 C1.04006348 15.21657715 -0.12250977 15.20610352 -1.3203125 15.1953125 C-3.20556641 15.18564453 -3.20556641 15.18564453 -5.12890625 15.17578125 C-6.44761719 15.15902344 -7.76632812 15.14226563 -9.125 15.125 C-10.46483721 15.11496983 -11.80468152 15.10584404 -13.14453125 15.09765625 C-16.42986573 15.07402075 -19.71484465 15.04107234 -23 15 C-21.65379256 10.64205164 -20.67965779 8.17420905 -17.125 5.25 C-16.44695312 4.67765625 -15.76890625 4.1053125 -15.0703125 3.515625 C-10.16140232 -0.07806773 -6.01563515 -0.88465223 0 0 Z " fill="#040404" transform="translate(286,541)"/>
<path d="M0 0 C3.71668022 1.61594792 5.88318426 3.54624801 8 7 C8 7.66 8 8.32 8 9 C5.1875 9.1875 5.1875 9.1875 2 9 C1 8 0 7 -1 6 C-4.11811483 5.61023565 -6.11019567 5.49577755 -8.875 7.0625 C-10.62409203 10.07482516 -10.30401551 12.59502627 -10 16 C-9.34 16.99 -8.68 17.98 -8 19 C-3.65413172 19.39507893 -1.67996503 19.45331002 2 17 C5.1875 16.875 5.1875 16.875 8 17 C6.27592413 21.38855677 3.17026127 23.91486937 -1 26 C-5.79971307 26.13201568 -9.11817546 25.6942023 -12.9375 22.6875 C-16.20251936 18.43308083 -17.56523111 15.67084132 -17.4609375 10.1015625 C-16.60803882 6.21292275 -13.90176501 3.59354645 -11 1 C-7.55105608 -0.72447196 -3.77843255 -0.36671096 0 0 Z " fill="#EFEFEF" transform="translate(129,663)"/>
<path d="M0 0 C4.95 0 9.9 0 15 0 C15 1.65 15 3.3 15 5 C12.03 5 9.06 5 6 5 C6 6.65 6 8.3 6 10 C8.97 10 11.94 10 15 10 C15 11.65 15 13.3 15 15 C12.03 15 9.06 15 6 15 C6 16.65 6 18.3 6 20 C8.97 20 11.94 20 15 20 C15 21.65 15 23.3 15 25 C10.05 25 5.1 25 0 25 C0 16.75 0 8.5 0 0 Z " fill="#EEEEEE" transform="translate(326,663)"/>
<path d="M0 0 C4.62 0 9.24 0 14 0 C14 1.65 14 3.3 14 5 C11.03 5 8.06 5 5 5 C5 6.65 5 8.3 5 10 C7.97 10 10.94 10 14 10 C14 11.65 14 13.3 14 15 C11.03 15 8.06 15 5 15 C5 16.65 5 18.3 5 20 C7.97 20 10.94 20 14 20 C14 21.65 14 23.3 14 25 C9.38 25 4.76 25 0 25 C0 16.75 0 8.5 0 0 Z " fill="#F9F9F9" transform="translate(215,663)"/>
<path d="M0 0 C1.98 0 3.96 0 6 0 C6.81381795 1.93694678 7.62600916 3.87457711 8.4375 5.8125 C9.11619141 7.43091797 9.11619141 7.43091797 9.80859375 9.08203125 C10.60375013 11.0295126 11.33479648 13.00438943 12 15 C12.25394531 14.41992188 12.50789063 13.83984375 12.76953125 13.2421875 C14.7404911 8.76877302 16.76843088 4.35155978 19 0 C20.98 0 22.96 0 25 0 C21.7 8.25 18.4 16.5 15 25 C13.35 25 11.7 25 10 25 C0 3.38297872 0 3.38297872 0 0 Z " fill="#F2F2F2" transform="translate(292,663)"/>
<path d="M0 0 C3.4375 0.9375 3.4375 0.9375 5.375 2.0625 C7.13047303 5.16039358 6.92473574 7.46594534 6.4375 10.9375 C4.375 13.4375 4.375 13.4375 1.4375 14.9375 C-2.25 14.875 -2.25 14.875 -5.5625 13.9375 C-8.04288907 10.2169164 -8.02587203 8.33953429 -7.5625 3.9375 C-5.29401339 0.30792142 -4.30870043 -0.07559124 0 0 Z " fill="#080808" transform="translate(160.5625,668.0625)"/>
<path d="M0 0 C3.4375 0.9375 3.4375 0.9375 5.375 2.0625 C7.1087306 5.12202459 6.85895216 7.50567525 6.4375 10.9375 C4.8125 13.375 4.8125 13.375 2.4375 14.9375 C-1.19882575 15.54355429 -2.84564769 15.40911336 -5.9375 13.375 C-8.18590519 10.00239221 -8.13033945 7.91237617 -7.5625 3.9375 C-5.29401339 0.30792142 -4.30870043 -0.07559124 0 0 Z " fill="#070707" transform="translate(270.5625,668.0625)"/>
<path d="M0 0 C6 1 6 1 7.875 2.1875 C9.59372152 4.95655134 9.44749962 6.80357412 9 10 C7.3125 12.875 7.3125 12.875 5 15 C3.35 15 1.7 15 0 15 C0 10.05 0 5.1 0 0 Z " fill="#0E0E0E" transform="translate(189,668)"/>
<path d="M0 0 C1.67542976 0.28604898 3.34385343 0.61781233 5 1 C4.67 2.65 4.34 4.3 4 6 C2.0625 6.5625 2.0625 6.5625 0 7 C-1 6 -1 6 -1.125 3.5 C-1 1 -1 1 0 0 Z " fill="#E2E2E2" transform="translate(386,682)"/>
</svg>
