<?xml version="1.0" encoding="UTF-8"?>
<svg version="1.1" xmlns="http://www.w3.org/2000/svg" width="1000" height="1000">
<path d="M0 0 C1.31451141 -0.00705963 2.62902283 -0.01411926 3.98336792 -0.02139282 C8.19985517 -0.04090571 12.41628432 -0.04608458 16.6328125 -0.046875 C17.35140945 -0.04716957 18.07000641 -0.04746414 18.81037903 -0.04776764 C39.93223916 -0.04916682 60.81723117 0.08785952 81.7578125 3.203125 C83.18585812 3.40927858 84.61391873 3.61532838 86.04199219 3.82128906 C136.56966151 11.2088092 185.66091469 25.06183079 231.7578125 47.203125 C232.799375 47.70005859 233.8409375 48.19699219 234.9140625 48.70898438 C271.50829997 66.27170041 305.5902686 88.19155026 336.7578125 114.203125 C337.33370117 114.67991699 337.90958984 115.15670898 338.50292969 115.64794922 C339.05883789 116.10830566 339.61474609 116.56866211 340.1875 117.04296875 C340.66558105 117.43863037 341.14366211 117.83429199 341.63623047 118.24194336 C353.03464469 127.84214622 363.81856934 138.07701991 374.35253906 148.61254883 C376.01610058 150.27390208 377.68756354 151.9270319 379.359375 153.58007812 C385.21334879 159.40429143 390.70269243 165.31021522 395.82226562 171.80004883 C397.79029868 174.24345818 399.86459114 176.53785542 402.0078125 178.828125 C408.42409499 185.89049149 414.0646376 193.55668465 419.7578125 201.203125 C420.2945459 201.92032715 420.8312793 202.6375293 421.38427734 203.37646484 C438.80367503 226.73489614 454.09713445 251.77502029 466.71386719 278.05029297 C467.8760996 280.44705755 469.0706186 282.82644562 470.265625 285.20703125 C499.95058568 344.9791152 517.74530651 414.48712268 517.9609375 481.35546875 C517.96376488 482.05415133 517.96659225 482.7528339 517.96950531 483.47268867 C517.98437165 487.18483965 517.99367487 490.89695316 517.99804688 494.60913086 C518.00238808 497.59981782 518.01612705 500.5902092 518.0390625 503.58081055 C518.23964245 530.32212647 516.69117465 556.62115594 512.0703125 583.015625 C511.94464905 583.74806427 511.8189856 584.48050354 511.68951416 585.23513794 C504.90593861 624.56659958 493.82489565 662.63122246 477.7578125 699.203125 C477.28907715 700.27530273 476.8203418 701.34748047 476.33740234 702.45214844 C456.70414837 747.0073434 430.69013463 788.42945081 398.7578125 825.203125 C398.12359375 825.93789063 397.489375 826.67265625 396.8359375 827.4296875 C392.96099458 831.89120435 389.00522823 836.27971636 385.0390625 840.66015625 C383.50263268 842.37285456 381.98199269 844.09983454 380.4765625 845.83984375 C379.765 846.66097656 379.0534375 847.48210938 378.3203125 848.328125 C377.68222656 849.07320312 377.04414062 849.81828125 376.38671875 850.5859375 C374.7578125 852.203125 374.7578125 852.203125 372.7578125 852.203125 C372.7578125 852.863125 372.7578125 853.523125 372.7578125 854.203125 C372.0978125 854.203125 371.4378125 854.203125 370.7578125 854.203125 C370.50257813 854.79609375 370.24734375 855.3890625 369.984375 856 C368.63157509 858.4298699 367.27439974 859.69548766 365.1328125 861.453125 C362.25482361 863.88158959 359.56162779 866.37010381 356.9453125 869.078125 C353.12546855 872.94988916 349.02261204 876.33938153 344.78125 879.73828125 C342.12138844 881.90672136 339.53822647 884.13204979 336.96264648 886.39794922 C271.3617147 943.83516774 186.08253661 979.88639827 100.7578125 994.453125 C100.07567688 994.57214172 99.39354126 994.69115845 98.69073486 994.81378174 C73.45264723 999.17122323 48.27659385 1000.71426671 22.7175293 1000.59423828 C19.05660413 1000.57716345 15.39633453 1000.5873348 11.73543167 1000.60455227 C-14.28485703 1000.70824074 -39.95296258 998.90353718 -65.6171875 994.390625 C-66.3611377 994.26306824 -67.10508789 994.13551147 -67.87158203 994.00408936 C-81.48356775 991.66583194 -94.89963787 988.78651616 -108.2421875 985.203125 C-109.32274414 984.91743652 -110.40330078 984.63174805 -111.51660156 984.33740234 C-139.07282512 976.98986996 -165.52286336 967.54324099 -191.38330078 955.52978516 C-193.89036395 954.36638795 -196.40511096 953.22334403 -198.92578125 952.08984375 C-235.94517501 935.29285652 -270.07347244 912.16258406 -301.2421875 886.203125 C-301.74717773 885.78450195 -302.25216797 885.36587891 -302.77246094 884.93457031 C-315.858182 874.07140865 -328.08182632 862.45502324 -340.1171875 850.453125 C-340.66338745 849.90960388 -341.2095874 849.36608276 -341.77233887 848.80609131 C-347.8147342 842.78616263 -353.72963603 836.71910495 -359.2421875 830.203125 C-360.22653313 829.07305761 -361.21217947 827.94412168 -362.19921875 826.81640625 C-389.67115331 795.15191054 -412.5326859 759.66752387 -431.2421875 722.203125 C-431.7057666 721.2838623 -432.1693457 720.36459961 -432.64697266 719.41748047 C-463.40626141 658.14635439 -482.34793382 586.70067506 -482.41015625 517.8984375 C-482.41338845 516.56346607 -482.41675379 515.22849496 -482.42024231 513.89352417 C-482.42617374 511.11195052 -482.42808871 508.33040763 -482.42749023 505.54882812 C-482.42740945 502.7528632 -482.43428566 499.95706379 -482.44799805 497.16113281 C-482.53195085 479.75708948 -482.15025546 462.52160272 -480.2421875 445.203125 C-480.16648529 444.51210693 -480.09078308 443.82108887 -480.01278687 443.10913086 C-479.57935616 439.27444465 -479.06073439 435.45740514 -478.4921875 431.640625 C-478.32299805 430.49190918 -478.15380859 429.34319336 -477.97949219 428.15966797 C-471.5030068 385.46432956 -460.49839929 343.83190431 -443.2421875 304.203125 C-442.88302246 303.37200195 -442.52385742 302.54087891 -442.15380859 301.68457031 C-423.58752889 258.91626546 -399.41725915 217.39910678 -368.73828125 182.09765625 C-366.42057064 179.40998244 -364.20138557 176.66754995 -361.9921875 173.890625 C-352.52124061 162.30205442 -341.85743032 151.73225999 -331.3046875 141.140625 C-330.4290918 140.26035645 -329.55349609 139.38008789 -328.65136719 138.47314453 C-323.67503003 133.50913913 -318.58779087 128.76515457 -313.2421875 124.203125 C-312.15905945 123.25385417 -311.07697874 122.3033866 -309.99609375 121.3515625 C-301.0531314 113.55081734 -291.76417189 106.2819548 -282.2421875 99.203125 C-281.52015137 98.6654248 -280.79811523 98.12772461 -280.05419922 97.57373047 C-254.88263406 78.9096348 -228.17712382 63.34347045 -200.2421875 49.203125 C-199.46262695 48.80528809 -198.68306641 48.40745117 -197.87988281 47.99755859 C-138.15399876 17.74116542 -66.94684991 0.24029185 0 0 Z " fill="#FEFEFE" transform="translate(482.2421875,-0.203125)"/>
<path d="M0 0 C2.66469797 -0.00271527 5.32938491 -0.00620799 7.99407959 -0.01062012 C14.43832036 -0.0194463 20.88251416 -0.01762274 27.32675666 -0.01179484 C32.57027326 -0.00725179 37.81377684 -0.00667677 43.05729485 -0.00884247 C44.18278461 -0.00930217 44.18278461 -0.00930217 45.33101154 -0.00977115 C46.8559475 -0.01041069 48.38088346 -0.01105912 49.90581941 -0.01171634 C64.15646394 -0.01739968 78.4070826 -0.01089303 92.65772288 -0.0001156 C104.84979042 0.00881992 117.04181986 0.00726396 129.23388672 -0.00195312 C143.44004296 -0.01268803 157.64617662 -0.01685246 171.85233635 -0.0107286 C173.37091219 -0.01009159 174.88948804 -0.00946285 176.40806389 -0.00884247 C177.52841422 -0.00837964 177.52841422 -0.00837964 178.67139788 -0.00790747 C183.9009536 -0.0061903 189.13049483 -0.00907433 194.36004829 -0.01380157 C200.74399661 -0.01944628 207.12789583 -0.01781921 213.51183862 -0.00724009 C216.76060402 -0.00203147 220.00927231 -0.0009442 223.25803947 -0.00653839 C256.40457109 -0.0583212 287.17030626 4.59480782 317.16577148 19.25878906 C318.14537842 19.73421143 318.14537842 19.73421143 319.14477539 20.21923828 C362.79108332 41.68080545 397.25298392 81.23104181 413.43481445 127.05175781 C414.88668228 131.43548699 416.1451853 135.86491883 417.35327148 140.32128906 C417.59126465 141.17537354 417.82925781 142.02945801 418.07446289 142.90942383 C423.08580748 162.30687431 423.60188038 181.90709321 423.53808594 201.82250977 C423.54052006 204.51735935 423.54413071 207.21218452 423.54914856 209.9070282 C423.55854048 216.40956776 423.55212308 222.91199477 423.53988562 229.41452584 C423.52613061 237.01179424 423.52791512 244.60903713 423.53001895 252.20631482 C423.53319452 265.77241306 423.52162192 279.33845845 423.50195312 292.90454102 C423.48293631 306.02467455 423.47587231 319.14474624 423.48144531 332.26489258 C423.48752086 346.61025027 423.48729506 360.95558093 423.47595948 375.3009364 C423.47475238 376.83405411 423.4735464 378.36717182 423.47234154 379.90028954 C423.47143623 381.03130843 423.47143623 381.03130843 423.47051263 382.1851762 C423.46665587 387.46336699 423.46701827 392.74154763 423.46892738 398.01973915 C423.47106261 404.46032182 423.46572528 410.90085075 423.45131383 417.34141836 C423.44413574 420.61856153 423.44102615 423.89561234 423.44455719 427.17276382 C423.46147746 445.69566833 422.55269976 463.17808466 418.16577148 481.25878906 C417.75198242 483.02609375 417.75198242 483.02609375 417.32983398 484.82910156 C405.04627967 534.27828176 372.31267884 575.05165973 329.16577148 601.25878906 C323.97572746 604.25056111 318.62663213 606.806063 313.16577148 609.25878906 C312.09673584 609.75668945 312.09673584 609.75668945 311.00610352 610.26464844 C286.71124993 621.54194603 261.02190428 626.42199554 234.31716919 626.39923096 C232.64038458 626.40368764 232.64038458 626.40368764 230.92972553 626.40823436 C227.22340619 626.41683262 223.51711949 626.41842202 219.81079102 626.41992188 C217.13686476 626.42455638 214.46294132 626.42956231 211.78901672 626.43496704 C204.55087141 626.44847079 197.3127317 626.45456261 190.0745759 626.4589777 C185.54234992 626.46175373 181.01012602 626.46599346 176.47790146 626.47048187 C163.89296923 626.48266427 151.30803866 626.49296552 138.72310066 626.49635696 C137.91975007 626.49657653 137.11639948 626.4967961 136.28870492 626.49702232 C135.48359509 626.49724059 134.67848526 626.49745887 133.84897816 626.49768376 C132.21792229 626.49812721 130.58686642 626.49857377 128.95581055 626.49902344 C128.14677614 626.49924487 127.33774174 626.4994663 126.50419115 626.49969444 C113.41611395 626.50363644 100.32809263 626.52107681 87.24003698 626.54438296 C73.75507419 626.56819913 60.27013931 626.58056346 46.78515518 626.58172488 C39.23310347 626.58263592 31.6811246 626.58824234 24.12909317 626.60654449 C17.69468175 626.6220849 11.26036568 626.62698509 4.82593901 626.61880639 C1.55413739 626.6149484 -1.71743657 626.61728089 -4.98922157 626.62986374 C-25.29742693 626.7033103 -45.46618855 625.82670161 -65.02172852 619.88378906 C-66.07287842 619.57562256 -67.12402832 619.26745605 -68.20703125 618.94995117 C-75.29995739 616.82941979 -82.1717263 614.51127624 -88.83422852 611.25878906 C-89.43992676 610.96891113 -90.045625 610.6790332 -90.66967773 610.38037109 C-109.02577418 601.5757051 -125.71818879 591.1959006 -140.66625977 577.27441406 C-142.73645399 575.34969295 -144.86375961 573.5213142 -147.02172852 571.69628906 C-180.03142861 542.77162171 -199.19767108 495.37508483 -202.63130248 452.45070207 C-202.9468762 447.48690412 -202.97552266 442.53837658 -202.96794128 437.56599426 C-202.97020684 436.45292599 -202.9724724 435.33985772 -202.97480661 434.1930601 C-202.98109058 430.49726687 -202.98032087 426.80151084 -202.97949219 423.10571289 C-202.98248718 420.44190334 -202.98586268 417.7780966 -202.9896698 415.11428833 C-202.99793911 408.64918589 -203.00072295 402.18409258 -203.00128218 395.7189853 C-203.0017591 390.45816528 -203.00382263 385.19734824 -203.0069828 379.93652916 C-203.01577917 364.98639644 -203.02040377 350.03627087 -203.01965233 335.08613554 C-203.01961237 334.28193689 -203.01957242 333.47773823 -203.01953125 332.64916992 C-203.01946993 331.44138112 -203.01946993 331.44138112 -203.01940737 330.20919254 C-203.01900117 317.16874397 -203.02856673 304.12832431 -203.04266962 291.08788411 C-203.05707142 277.66400276 -203.06393772 264.24013547 -203.06307584 250.81624621 C-203.06274519 243.29345298 -203.06543426 235.77069005 -203.07625389 228.24790382 C-203.08540912 221.84185615 -203.08749326 215.43585253 -203.08074447 209.02980111 C-203.07750441 205.76892234 -203.07844143 202.50814438 -203.08609772 199.24727058 C-203.12239978 182.70504144 -202.87991994 166.44114622 -199.02172852 150.25878906 C-198.7629895 149.14963135 -198.7629895 149.14963135 -198.49902344 148.01806641 C-197.96110102 145.76037508 -197.40203546 143.50913427 -196.83422852 141.25878906 C-196.66052734 140.55786133 -196.48682617 139.85693359 -196.30786133 139.13476562 C-188.85465846 109.69392548 -172.65352892 81.48794226 -151.39819336 59.86230469 C-149.78577333 58.20910851 -148.21004408 56.52570879 -146.63500977 54.83691406 C-133.91867377 41.41369939 -119.04408256 30.72345489 -102.65600586 22.21289062 C-100.94590051 21.31727394 -99.25820345 20.37923495 -97.57250977 19.43847656 C-67.18256766 3.08876103 -33.81574373 -0.05827894 0 0 Z " fill="#FEFEFE" transform="translate(389.834228515625,186.7412109375)"/>
<path d="M0 0 C2.66469797 -0.00271527 5.32938491 -0.00620799 7.99407959 -0.01062012 C14.43832036 -0.0194463 20.88251416 -0.01762274 27.32675666 -0.01179484 C32.57027326 -0.00725179 37.81377684 -0.00667677 43.05729485 -0.00884247 C44.18278461 -0.00930217 44.18278461 -0.00930217 45.33101154 -0.00977115 C46.8559475 -0.01041069 48.38088346 -0.01105912 49.90581941 -0.01171634 C64.15646394 -0.01739968 78.4070826 -0.01089303 92.65772288 -0.0001156 C104.84979042 0.00881992 117.04181986 0.00726396 129.23388672 -0.00195312 C143.44004296 -0.01268803 157.64617662 -0.01685246 171.85233635 -0.0107286 C173.37091219 -0.01009159 174.88948804 -0.00946285 176.40806389 -0.00884247 C177.52841422 -0.00837964 177.52841422 -0.00837964 178.67139788 -0.00790747 C183.9009536 -0.0061903 189.13049483 -0.00907433 194.36004829 -0.01380157 C200.74399661 -0.01944628 207.12789583 -0.01781921 213.51183862 -0.00724009 C216.76060402 -0.00203147 220.00927231 -0.0009442 223.25803947 -0.00653839 C256.40457109 -0.0583212 287.17030626 4.59480782 317.16577148 19.25878906 C318.14537842 19.73421143 318.14537842 19.73421143 319.14477539 20.21923828 C362.79108332 41.68080545 397.25298392 81.23104181 413.43481445 127.05175781 C414.88668228 131.43548699 416.1451853 135.86491883 417.35327148 140.32128906 C417.59126465 141.17537354 417.82925781 142.02945801 418.07446289 142.90942383 C423.08580748 162.30687431 423.60188038 181.90709321 423.53808594 201.82250977 C423.54052006 204.51735935 423.54413071 207.21218452 423.54914856 209.9070282 C423.55854048 216.40956776 423.55212308 222.91199477 423.53988562 229.41452584 C423.52613061 237.01179424 423.52791512 244.60903713 423.53001895 252.20631482 C423.53319452 265.77241306 423.52162192 279.33845845 423.50195312 292.90454102 C423.48293631 306.02467455 423.47587231 319.14474624 423.48144531 332.26489258 C423.48752086 346.61025027 423.48729506 360.95558093 423.47595948 375.3009364 C423.47475238 376.83405411 423.4735464 378.36717182 423.47234154 379.90028954 C423.47143623 381.03130843 423.47143623 381.03130843 423.47051263 382.1851762 C423.46665587 387.46336699 423.46701827 392.74154763 423.46892738 398.01973915 C423.47106261 404.46032182 423.46572528 410.90085075 423.45131383 417.34141836 C423.44413574 420.61856153 423.44102615 423.89561234 423.44455719 427.17276382 C423.46147746 445.69566833 422.55269976 463.17808466 418.16577148 481.25878906 C417.75198242 483.02609375 417.75198242 483.02609375 417.32983398 484.82910156 C405.04627967 534.27828176 372.31267884 575.05165973 329.16577148 601.25878906 C323.97572746 604.25056111 318.62663213 606.806063 313.16577148 609.25878906 C312.09673584 609.75668945 312.09673584 609.75668945 311.00610352 610.26464844 C286.71124993 621.54194603 261.02190428 626.42199554 234.31716919 626.39923096 C232.64038458 626.40368764 232.64038458 626.40368764 230.92972553 626.40823436 C227.22340619 626.41683262 223.51711949 626.41842202 219.81079102 626.41992188 C217.13686476 626.42455638 214.46294132 626.42956231 211.78901672 626.43496704 C204.55087141 626.44847079 197.3127317 626.45456261 190.0745759 626.4589777 C185.54234992 626.46175373 181.01012602 626.46599346 176.47790146 626.47048187 C163.89296923 626.48266427 151.30803866 626.49296552 138.72310066 626.49635696 C137.91975007 626.49657653 137.11639948 626.4967961 136.28870492 626.49702232 C135.48359509 626.49724059 134.67848526 626.49745887 133.84897816 626.49768376 C132.21792229 626.49812721 130.58686642 626.49857377 128.95581055 626.49902344 C128.14677614 626.49924487 127.33774174 626.4994663 126.50419115 626.49969444 C113.41611395 626.50363644 100.32809263 626.52107681 87.24003698 626.54438296 C73.75507419 626.56819913 60.27013931 626.58056346 46.78515518 626.58172488 C39.23310347 626.58263592 31.6811246 626.58824234 24.12909317 626.60654449 C17.69468175 626.6220849 11.26036568 626.62698509 4.82593901 626.61880639 C1.55413739 626.6149484 -1.71743657 626.61728089 -4.98922157 626.62986374 C-25.29742693 626.7033103 -45.46618855 625.82670161 -65.02172852 619.88378906 C-66.07287842 619.57562256 -67.12402832 619.26745605 -68.20703125 618.94995117 C-75.29995739 616.82941979 -82.1717263 614.51127624 -88.83422852 611.25878906 C-89.43992676 610.96891113 -90.045625 610.6790332 -90.66967773 610.38037109 C-109.02577418 601.5757051 -125.71818879 591.1959006 -140.66625977 577.27441406 C-142.73645399 575.34969295 -144.86375961 573.5213142 -147.02172852 571.69628906 C-180.03142861 542.77162171 -199.19767108 495.37508483 -202.63130248 452.45070207 C-202.9468762 447.48690412 -202.97552266 442.53837658 -202.96794128 437.56599426 C-202.97020684 436.45292599 -202.9724724 435.33985772 -202.97480661 434.1930601 C-202.98109058 430.49726687 -202.98032087 426.80151084 -202.97949219 423.10571289 C-202.98248718 420.44190334 -202.98586268 417.7780966 -202.9896698 415.11428833 C-202.99793911 408.64918589 -203.00072295 402.18409258 -203.00128218 395.7189853 C-203.0017591 390.45816528 -203.00382263 385.19734824 -203.0069828 379.93652916 C-203.01577917 364.98639644 -203.02040377 350.03627087 -203.01965233 335.08613554 C-203.01961237 334.28193689 -203.01957242 333.47773823 -203.01953125 332.64916992 C-203.01946993 331.44138112 -203.01946993 331.44138112 -203.01940737 330.20919254 C-203.01900117 317.16874397 -203.02856673 304.12832431 -203.04266962 291.08788411 C-203.05707142 277.66400276 -203.06393772 264.24013547 -203.06307584 250.81624621 C-203.06274519 243.29345298 -203.06543426 235.77069005 -203.07625389 228.24790382 C-203.08540912 221.84185615 -203.08749326 215.43585253 -203.08074447 209.02980111 C-203.07750441 205.76892234 -203.07844143 202.50814438 -203.08609772 199.24727058 C-203.12239978 182.70504144 -202.87991994 166.44114622 -199.02172852 150.25878906 C-198.7629895 149.14963135 -198.7629895 149.14963135 -198.49902344 148.01806641 C-197.96110102 145.76037508 -197.40203546 143.50913427 -196.83422852 141.25878906 C-196.66052734 140.55786133 -196.48682617 139.85693359 -196.30786133 139.13476562 C-188.85465846 109.69392548 -172.65352892 81.48794226 -151.39819336 59.86230469 C-149.78577333 58.20910851 -148.21004408 56.52570879 -146.63500977 54.83691406 C-133.91867377 41.41369939 -119.04408256 30.72345489 -102.65600586 22.21289062 C-100.94590051 21.31727394 -99.25820345 20.37923495 -97.57250977 19.43847656 C-67.18256766 3.08876103 -33.81574373 -0.05827894 0 0 Z M-110.17797852 102.66894531 C-125.49176266 119.36685995 -134.80250953 139.25255853 -140.14672852 161.07128906 C-140.30633057 161.71573975 -140.46593262 162.36019043 -140.63037109 163.02416992 C-142.85095278 172.77584643 -142.98317131 182.83879454 -142.98812866 192.7973175 C-142.99251092 193.89390173 -142.99689317 194.99048595 -143.00140822 196.12029999 C-143.01466304 199.76062182 -143.02094478 203.40091953 -143.02709961 207.04125977 C-143.03501109 209.66577764 -143.04328067 212.29029446 -143.05187988 214.91481018 C-143.07625857 222.7631489 -143.09100726 230.61149363 -143.10393995 238.45985845 C-143.10766181 240.68205835 -143.11163416 242.90425766 -143.11569262 245.12645698 C-143.14093335 258.9721554 -143.16295223 272.81785505 -143.17542076 286.66357136 C-143.17834967 289.86140764 -143.18131145 293.05924388 -143.18432617 296.25708008 C-143.18507222 297.05172691 -143.18581827 297.84637374 -143.18658693 298.66510078 C-143.19922142 311.51725544 -143.23242841 324.36927118 -143.274128 337.22136102 C-143.31673163 350.46220812 -143.34013667 363.70298442 -143.34534132 376.94389981 C-143.34873406 384.35965562 -143.36023414 391.77519406 -143.39344406 399.19088173 C-143.42170021 405.51007556 -143.43233352 411.82900733 -143.4212486 418.14825938 C-143.41612673 421.36147651 -143.42135112 424.57404251 -143.44371414 427.78720093 C-143.70523905 467.56859173 -131.49399596 501.47534356 -103.83422852 530.25878906 C-102.99891602 531.20625 -102.99891602 531.20625 -102.14672852 532.17285156 C-88.44352532 547.23210091 -67.20791162 557.18044489 -47.83422852 562.25878906 C-46.67793945 562.56558594 -45.52165039 562.87238281 -44.33032227 563.18847656 C-33.75565976 565.81029371 -23.32679443 566.41005699 -12.46255493 566.38577271 C-10.82675273 566.38811269 -10.82675273 566.38811269 -9.15790403 566.39049995 C-5.53258276 566.39446332 -1.90730395 566.39133845 1.71801758 566.38818359 C4.32905603 566.38953972 6.9400943 566.39132084 9.5511322 566.39349365 C15.89003546 566.39792514 22.22892684 566.39698648 28.56783055 566.39408101 C33.72382675 566.39181626 38.87981964 566.3915191 44.03581619 566.39260483 C44.77159386 566.39275806 45.50737152 566.39291129 46.26544548 566.39306917 C47.7605131 566.39338892 49.25558072 566.39371313 50.75064833 566.39404176 C64.74933374 566.39688898 78.74801258 566.39362164 92.7466969 566.3882414 C104.73600109 566.38377591 116.7252956 566.38454865 128.71459961 566.38916016 C142.6624666 566.39452254 156.61032784 566.3966124 170.55819571 566.39354789 C172.04816222 566.39322937 173.53812873 566.392915 175.02809525 566.39260483 C176.12751022 566.39237341 176.12751022 566.39237341 177.24913561 566.39213733 C182.39282089 566.39127702 187.53650251 566.39272458 192.68018723 566.39508438 C199.61593605 566.3981966 206.55166637 566.39595221 213.48741341 566.39019012 C216.02657732 566.3888727 218.56574279 566.38923928 221.10490608 566.39145279 C262.05178701 566.42384503 296.94888092 557.238978 326.85327148 528.00878906 C343.7679545 510.91041718 354.8146127 489.78863329 360.47827148 466.50878906 C360.63779297 465.86055176 360.79731445 465.21231445 360.96166992 464.54443359 C363.1696245 454.77435642 363.31495726 444.70994235 363.29948425 434.73562622 C363.30174981 433.64085901 363.30401537 432.5460918 363.30634958 431.41814983 C363.31263179 427.78445215 363.31186396 424.15079232 363.31103516 420.51708984 C363.31403021 417.89767408 363.31743353 415.27825875 363.32121277 412.65884399 C363.32948034 406.30303385 363.33226581 399.94723299 363.33282515 393.59141792 C363.33330203 388.42115183 363.33536533 383.25088876 363.33852577 378.08062363 C363.34732062 363.39198154 363.35194682 348.70334672 363.3511953 334.01470198 C363.35115534 333.22465013 363.35111539 332.43459828 363.35107422 331.62060547 C363.35103334 330.82957907 363.35099246 330.03855268 363.35095034 329.22355579 C363.35054389 316.40417549 363.36011628 303.58482456 363.37421259 290.76545276 C363.38860341 277.5732384 363.39548133 264.38103835 363.39461881 251.18881595 C363.39428784 243.79410934 363.39699096 236.39943354 363.40779686 229.00473404 C363.41789667 222.0492561 363.41753898 215.09384409 363.41028023 208.13836288 C363.40923775 205.59316665 363.41157717 203.04796632 363.41764069 200.5027771 C363.50144126 182.28733938 363.50144126 182.28733938 361.16577148 164.25878906 C361.02620624 163.5110277 360.88664099 162.76326633 360.74284649 161.99284554 C354.3008399 129.82906234 334.67006436 100.72281331 307.52124023 82.40722656 C303.75030146 79.99277217 299.93557229 77.7645425 295.95874023 75.70800781 C294.34556545 74.87096188 292.74322177 74.01051712 291.17626953 73.08984375 C285.79912537 69.95615939 280.57746572 67.84343058 274.60327148 66.13378906 C273.8240332 65.8953125 273.04479492 65.65683594 272.24194336 65.41113281 C269.56396793 64.62286638 266.87444676 63.93467376 264.16577148 63.25878906 C262.61929066 62.87103743 262.61929066 62.87103743 261.0415678 62.47545242 C248.03221907 59.62992108 235.12626043 59.85069737 221.86230469 59.90234375 C219.23081489 59.90155161 216.5993502 59.89957386 213.96786499 59.89614868 C207.5981872 59.89055371 201.22863121 59.90075597 194.85897414 59.91643664 C187.42504039 59.93408896 179.99112934 59.93539827 172.55717792 59.93605223 C159.28597666 59.93773528 146.01483036 59.95348965 132.74365234 59.97753906 C119.89468937 60.00080611 107.04576122 60.01496653 94.19677734 60.01855469 C93.00885535 60.01888884 93.00885535 60.01888884 91.79693494 60.01922974 C90.20128805 60.01967237 88.60564117 60.0201144 87.00999428 60.02055581 C85.82903549 60.02088516 85.82903549 60.02088516 84.62421894 60.02122116 C83.83877416 60.02143715 83.05332938 60.02165313 82.24408324 60.02187566 C69.95598364 60.02558487 57.66788957 60.03694251 45.37979609 60.04935156 C40.94209533 60.05377007 36.50439508 60.05721519 32.06669299 60.05997369 C24.36626855 60.06484225 16.66587554 60.07501106 8.96546555 60.09080124 C6.41501161 60.09530215 3.86455414 60.09815764 1.31409645 60.09920883 C-42.8388246 60.12148091 -78.81649133 70.41888265 -110.17797852 102.66894531 Z " fill="#010101" transform="translate(389.834228515625,186.7412109375)"/>
<path d="M0 0 C1.39478933 0.2863826 2.79067734 0.56745541 4.1875 0.84375 C32.05431037 6.55556106 56.71214241 21.41952936 77 41 C77.85207031 41.78890625 78.70414063 42.5778125 79.58203125 43.390625 C102.20150163 64.90583777 115.89452527 95.29376337 120 126 C120.1381311 127.02516724 120.1381311 127.02516724 120.27905273 128.07104492 C125.28088114 168.32047897 114.45930983 210.49437086 89.68359375 242.640625 C85.99973709 247.30135099 82.11456932 251.71484323 78 256 C76.66388672 257.43085937 76.66388672 257.43085937 75.30078125 258.890625 C49.13536143 286.41915086 11.10956239 302.63780944 -26.6640625 304.25 C-46.33040929 304.70959397 -66.63248477 302.20253461 -85 295 C-86.14339844 294.58621094 -87.28679687 294.17242188 -88.46484375 293.74609375 C-108.181845 286.31617764 -124.75112645 274.40171391 -140 260 C-140.80953125 259.25492188 -141.6190625 258.50984375 -142.453125 257.7421875 C-159.69787556 241.31086857 -171.00587588 220.18747446 -179 198 C-179.42152344 196.84886719 -179.84304688 195.69773437 -180.27734375 194.51171875 C-188.34478167 170.55295029 -189.19681859 140.50767575 -183 116 C-182.81727539 115.23961426 -182.63455078 114.47922852 -182.44628906 113.69580078 C-177.82896697 94.98010359 -169.69801285 76.3959384 -158 61 C-157.35546875 60.14792969 -156.7109375 59.29585938 -156.046875 58.41796875 C-144.48317346 43.59913076 -131.75567935 31.20922898 -116 21 C-114.96101563 20.31035156 -113.92203125 19.62070312 -112.8515625 18.91015625 C-98.59968939 9.74321071 -83.32385629 4.26630926 -67 0 C-66.33548828 -0.18079102 -65.67097656 -0.36158203 -64.98632812 -0.54785156 C-44.95025621 -5.79142293 -19.97967808 -4.91025987 0 0 Z " fill="#010101" transform="translate(533,353)"/>
<path d="M0 0 C1.23363281 -0.01611328 2.46726562 -0.03222656 3.73828125 -0.04882812 C27.22669017 -0.06117745 50.31913928 9.70612551 67.75 25.3125 C68.64332031 26.11171875 69.53664063 26.9109375 70.45703125 27.734375 C84.50183174 41.01309546 94.35237674 58.45227066 98.75 77.3125 C99.05550781 78.56740234 99.05550781 78.56740234 99.3671875 79.84765625 C103.69128567 100.905422 100.4821468 122.83113156 91.75 142.3125 C91.08871094 143.83423828 91.08871094 143.83423828 90.4140625 145.38671875 C86.88548897 152.99946993 82.26490176 159.03056085 76.75 165.3125 C76.1621875 166.03308594 75.574375 166.75367188 74.96875 167.49609375 C59.09458957 186.7023303 33.9808129 196.51249495 9.75 199.3125 C-16.7714504 200.97767078 -42.6512509 193.50603584 -63.25 176.3125 C-80.08053084 161.45222933 -93.03838651 142.67557446 -97.25 120.3125 C-97.45367187 119.29929687 -97.65734375 118.28609375 -97.8671875 117.2421875 C-100.45170786 102.83260136 -99.59060605 89.43019167 -96.25 75.3125 C-95.99476563 74.22453125 -95.73953125 73.1365625 -95.4765625 72.015625 C-88.64294971 46.81275948 -70.7153172 25.40615003 -48.46191406 12.25585938 C-40.43451621 7.7562566 -32.15268152 4.58392177 -23.25 2.3125 C-22.62722168 2.13517334 -22.00444336 1.95784668 -21.36279297 1.77514648 C-14.28609744 -0.06571191 -7.27587203 -0.0187716 0 0 Z " fill="#FEFEFE" transform="translate(499.25,403.6875)"/>
<path d="M0 0 C8.95319654 6.96359731 14.22696486 15.43089459 17.8125 26.1875 C18.87801562 38.47137298 17.1440097 48.17438764 9.25 58.0625 C2.35867322 65.29576284 -7.09509393 69.24806582 -16.95458984 69.58129883 C-26.76321008 69.74181657 -33.89392612 68.95153384 -42.1875 63.1875 C-42.7959375 62.80464844 -43.404375 62.42179687 -44.03125 62.02734375 C-50.92176742 57.12312345 -55.6637599 47.37288072 -57.1875 39.1875 C-58.31873679 27.42822375 -56.4592972 17.30250509 -48.87890625 8.03125 C-35.22307693 -6.8545501 -17.75532218 -10.09616359 0 0 Z " fill="#010101" transform="translate(685.1875,308.8125)"/>
<path d="M0 0 C2 3 2 3 1.7578125 5.19140625 C1.54898438 5.97386719 1.34015625 6.75632812 1.125 7.5625 C0.27171596 10.74395296 0.27171596 10.74395296 0 14 C-0.66 14 -1.32 14 -2 14 C-2.10570312 14.70125 -2.21140625 15.4025 -2.3203125 16.125 C-3.09307681 19.3937042 -4.34342599 22.01304969 -5.875 25 C-6.38804687 26.010625 -6.90109375 27.02125 -7.4296875 28.0625 C-9.75785129 32.41767207 -11.73943103 36.11697583 -15.5625 39.3125 C-16.16191406 39.82425781 -16.76132812 40.33601562 -17.37890625 40.86328125 C-19 42 -19 42 -21 42 C-21 42.66 -21 43.32 -21 44 C-22.63753983 45.31476977 -24.33762273 46.55210408 -26.0625 47.75 C-31.63935589 51.70384783 -36.75319006 55.90638165 -41.75 60.5625 C-48.96479975 66.49848604 -58.89457243 69.56768555 -68 71 C-68.66 70.67 -69.32 70.34 -70 70 C-57.39754098 58.30046107 -57.39754098 58.30046107 -53 54.5 C-41.04394149 44.126361 -29.18577068 33.26721088 -18.9140625 21.19921875 C-15.81203499 17.63505244 -12.57522267 14.19468454 -9.34960938 10.74243164 C-6.10709302 7.25587215 -3.01884845 3.68233162 0 0 Z " fill="#090909" transform="translate(888,818)"/>
<path d="M0 0 C1.65 1.65 3.3 3.3 5 5 C4.01 5 3.02 5 2 5 C2 4.34 2 3.68 2 3 C1.34 3 0.68 3 0 3 C0 2.01 0 1.02 0 0 Z " fill="#000000" transform="translate(136,846)"/>
<path d="M0 0 C0.99 0.99 1.98 1.98 3 3 C2.01 2.67 1.02 2.34 0 2 C0 1.34 0 0.68 0 0 Z " fill="#000000" transform="translate(141,851)"/>
<path d="M0 0 C0.66 0.66 1.32 1.32 2 2 C1.34 2 0.68 2 0 2 C0 1.34 0 0.68 0 0 Z " fill="#000000" transform="translate(134,844)"/>
<path d="" fill="#000000" transform="translate(0,0)"/>
<path d="" fill="#000000" transform="translate(0,0)"/>
<path d="" fill="#000000" transform="translate(0,0)"/>
<path d="" fill="#000000" transform="translate(0,0)"/>
<path d="" fill="#000000" transform="translate(0,0)"/>
<path d="" fill="#000000" transform="translate(0,0)"/>
<path d="" fill="#000000" transform="translate(0,0)"/>
<path d="" fill="#000000" transform="translate(0,0)"/>
<path d="" fill="#FFFFFF" transform="translate(0,0)"/>
<path d="" fill="#000000" transform="translate(0,0)"/>
</svg>
